<?xml version="1.0" encoding="UTF-8" standalone="no"?><!DOCTYPE svg PUBLIC "-//W3C//DTD SVG 1.1//EN" "http://www.w3.org/Graphics/SVG/1.1/DTD/svg11.dtd"><svg width="100%" height="100%" viewBox="0 0 71 87" version="1.1" xmlns="http://www.w3.org/2000/svg" xmlns:xlink="http://www.w3.org/1999/xlink" xml:space="preserve" xmlns:serif="http://www.serif.com/" style="fill-rule:evenodd;clip-rule:evenodd;stroke-linejoin:round;stroke-miterlimit:2;"><rect id="Artboard1" x="0" y="0" width="70.638" height="86.121" style="fill:none;"/><path d="M6.882,15.246c-0,-6.969 5.808,-12.703 12.866,-12.703c7.059,-0 12.867,5.734 12.867,12.703l-0,38.362c3.298,3.323 5.146,7.795 5.146,12.447c0,9.756 -8.131,17.784 -18.013,17.784c-9.882,-0 -18.013,-8.028 -18.013,-17.784c0,-4.652 1.849,-9.124 5.147,-12.447l-0,-38.362Zm12.866,-7.622c-4.235,-0 -7.72,3.44 -7.72,7.622l0,40.583l-0.859,0.762c-2.728,2.409 -4.29,5.856 -4.29,9.469c0,6.969 5.808,12.703 12.867,12.703c7.058,0 12.866,-5.734 12.866,-12.703c0,-3.613 -1.561,-7.06 -4.289,-9.469l-0.855,-0.767l0,-40.578c0,-4.182 -3.485,-7.622 -7.72,-7.622Z" style="fill-rule:nonzero;"/><path d="M27.468,66.057c-0.002,4.18 -3.486,7.618 -7.72,7.618c-4.235,0 -7.72,-3.44 -7.72,-7.622c0,-3.222 2.07,-6.111 5.147,-7.186l-0,-8.053c-0,-1.394 1.162,-2.541 2.573,-2.541c1.412,0 2.574,1.147 2.574,2.541l-0,8.053c3.078,1.075 5.148,3.967 5.146,7.19Z" style="fill:#05d7d7;fill-rule:nonzero;"/><path d="M41.317,12.847c1.412,-0 2.574,1.147 2.574,2.54l-0,6.57l3.324,-3.287c0.483,-0.477 1.139,-0.745 1.822,-0.745c1.414,-0 2.577,1.148 2.577,2.543c-0,0.675 -0.272,1.322 -0.755,1.799l-6.968,6.875l-0,9.791l8.589,-4.893l2.548,-9.4c0.302,-1.106 1.325,-1.881 2.486,-1.881c1.412,0 2.574,1.147 2.574,2.542c0,0.223 -0.03,0.445 -0.088,0.66l-1.22,4.482l5.764,-3.283c0.388,-0.217 0.826,-0.332 1.272,-0.332c1.412,0 2.573,1.147 2.573,2.541c0,0.901 -0.485,1.736 -1.272,2.192l-5.764,3.282l4.55,1.204c1.12,0.298 1.905,1.309 1.905,2.455c0,1.394 -1.162,2.541 -2.574,2.541c-0.226,0 -0.451,-0.029 -0.669,-0.087l-9.511,-2.515l-8.59,4.893l8.59,4.893l9.516,-2.515c0.229,-0.065 0.467,-0.098 0.705,-0.098c1.412,0 2.574,1.147 2.574,2.541c-0,1.163 -0.809,2.184 -1.951,2.465l-4.545,1.204l5.764,3.283c0.787,0.455 1.272,1.291 1.272,2.192c0,1.393 -1.161,2.54 -2.573,2.54c-0.446,0 -0.884,-0.114 -1.272,-0.332l-5.764,-3.282l1.22,4.486c0.065,0.227 0.098,0.461 0.098,0.697c0,1.394 -1.161,2.541 -2.573,2.541c-1.178,-0 -2.212,-0.798 -2.497,-1.927l-2.542,-9.39l-8.595,-4.898l-0,9.792l6.968,6.874c0.483,0.477 0.755,1.125 0.755,1.799c-0,1.396 -1.163,2.544 -2.577,2.544c-0.683,-0 -1.339,-0.268 -1.822,-0.745l-3.324,-3.288l-0,6.57c-0,1.394 -1.162,2.541 -2.574,2.541c-1.411,-0 -2.573,-1.147 -2.573,-2.541l0,-55.893c0,-1.393 1.162,-2.54 2.573,-2.54Z" style="fill:#05d7d7;fill-rule:nonzero;"/></svg>