<?xml version="1.0" encoding="UTF-8" standalone="no"?><!DOCTYPE svg PUBLIC "-//W3C//DTD SVG 1.1//EN" "http://www.w3.org/Graphics/SVG/1.1/DTD/svg11.dtd"><svg width="100%" height="100%" viewBox="0 0 2250 2250" version="1.1" xmlns="http://www.w3.org/2000/svg" xmlns:xlink="http://www.w3.org/1999/xlink" xml:space="preserve" xmlns:serif="http://www.serif.com/" style="fill-rule:evenodd;clip-rule:evenodd;stroke-linejoin:round;stroke-miterlimit:2;"><ellipse cx="1120.07" cy="1122.06" rx="1067.38" ry="1098.52" style="fill:url(#_Linear1);"/><g><g><path d="M2071.04,725.204l0,-1.718c-1.065,0 -2.038,-1.549 -3.103,-4.984l-4.503,-3.436l0,1.718c-13.203,-7.882 -34.469,-12.9 -63.948,-15.123c-29.358,-2.223 -58.808,-2.762 -88.166,-1.717c-30.423,1.178 -52.783,1.717 -66.9,1.717c-7.149,-2.223 -15.82,-4.984 -25.92,-8.42c-10.101,-2.223 -13.66,-2.762 -10.709,-1.718c4.168,2.257 7.606,4.48 10.709,6.702c-3.103,-1.043 -6.055,-1.548 -9.157,-1.548c-23.274,-3.436 -56.192,0.505 -98.875,11.687c-41.588,11.317 -85.214,26.978 -130.849,47.254c-12.108,5.524 -38.485,17.346 -79.008,35.23c-40.645,18.054 -90.812,40.552 -150.564,67.362c-59.902,25.935 -125.859,54.496 -197.749,85.921c-24.368,-8.926 -54.334,-20.108 -89.868,-33.681c1.094,-1.045 2.616,-2.224 4.654,-3.267c10.101,-11.317 16.155,-23.038 18.163,-35.399c2.038,-13.574 2.038,-25.261 0,-35.399c-0.943,-10.138 -6.998,-20.276 -18.163,-30.245c-11.165,-11.317 -26.377,-16.841 -45.634,-16.841c-16.277,1.044 -39.094,6.164 -68.452,15.123c-29.479,10.138 -57.286,20.781 -83.663,31.963c-66.9,-25.8 -131.335,-50.521 -193.246,-74.065c-61.789,-24.755 -113.599,-44.997 -155.066,-60.659c-40.645,-15.661 -62.884,-24.082 -67.051,-25.261c-6.055,-1.179 -14.117,-1.717 -24.218,-1.717c-9.157,-0 -17.249,1.178 -24.368,3.435l-73.106,36.948l1.551,5.153c1.065,1.044 18.315,11.182 51.689,30.246c33.526,19.097 75.114,43.28 124.795,72.515c49.68,29.067 99.939,58.942 150.563,89.187c51.688,29.202 96.379,55.001 133.951,77.5c37.421,21.32 60.846,34.186 69.852,38.666c12.26,7.915 21.417,18.019 27.471,30.414c-105.537,47.086 -204.411,90.366 -296.623,129.571c-59.903,-28.023 -116.702,-57.763 -170.429,-89.188c-53.697,-31.457 -111.469,-61.198 -173.38,-89.355l-118.619,50.521l171.859,235.767l-159.72,-47.086l159.72,47.086l15.211,35.399c-166.261,68.54 -171.735,70.053 0,-0l89.718,316.702l130.848,-43.819l19.715,-235.767c55.856,-7.915 107.088,-15.796 153.666,-23.543c39.58,-6.871 81.168,-14.617 124.794,-23.711c44.57,-8.926 86.158,-17.885 124.643,-26.81c39.58,-7.915 71.555,-14.618 95.923,-20.276c25.312,-6.703 38.029,-10.138 38.029,-10.138c0.943,0 2.951,-0.505 6.054,-1.718c5.111,9.094 9.614,18.559 13.66,28.696c4.046,10.138 8.671,19.064 13.66,26.979c4.168,6.702 15.212,29.74 33.526,69.08c17.22,39.204 38.029,86.425 62.397,141.426c24.369,53.788 48.586,108.284 72.955,163.251c23.303,53.958 43.139,100 59.294,138.16c16.306,37.117 24.855,57.763 25.92,62.377c3.103,8.926 13.203,9.97 30.423,3.267c17.22,-7.881 34.469,-16.84 51.689,-26.978c16.276,-11.182 26.377,-17.885 30.423,-20.108c17.249,-12.36 25.92,-26.978 25.92,-43.819c0.943,-16.84 0.943,-25.8 -0,-26.978l-45.635,-306.396c19.258,-7.915 35.991,-15.797 50.138,-23.712c15.211,-8.925 26.376,-16.166 33.525,-21.825c10.101,-11.182 16.763,-24.082 19.715,-38.665c2.038,-14.618 2.038,-26.979 -0,-37.117c-0.944,-11.182 -8.063,-23.038 -21.266,-35.399c-12.109,-11.182 -28.415,-16.84 -48.737,-16.84c-14.117,-0 -32.918,3.94 -56.192,11.855l-27.471,-186.963c48.737,-21.32 95.923,-41.562 141.557,-60.659c45.634,-20.107 86.158,-38.161 121.692,-53.788c35.412,-15.797 62.397,-27.518 80.56,-35.399c109.583,-51.7 187.648,-99.999 234.226,-144.862c47.672,-44.863 70.003,-77.5 67.052,-97.608c-0,-2.256 -0.609,-3.974 -1.552,-5.153Z" style="fill:#23426e;"/></g></g><defs><linearGradient id="_Linear1" x1="0" y1="0" x2="1" y2="0" gradientUnits="userSpaceOnUse" gradientTransform="matrix(-982.781,-1114.21,1114.21,-982.781,1774.3,1747)"><stop offset="0" style="stop-color:#05d7d7;stop-opacity:1"/><stop offset="1" style="stop-color:#94ba33;stop-opacity:1"/></linearGradient></defs></svg>