<?xml version="1.0" encoding="UTF-8" standalone="no"?><!DOCTYPE svg PUBLIC "-//W3C//DTD SVG 1.1//EN" "http://www.w3.org/Graphics/SVG/1.1/DTD/svg11.dtd"><svg width="100%" height="100%" viewBox="0 0 4267 834" version="1.1" xmlns="http://www.w3.org/2000/svg" xmlns:xlink="http://www.w3.org/1999/xlink" xml:space="preserve" xmlns:serif="http://www.serif.com/" style="fill-rule:evenodd;clip-rule:evenodd;stroke-linejoin:round;stroke-miterlimit:2;"><g><g><path d="M473.866,487.118c-2.67,0.293 -4.125,1.541 -4.435,3.762c0.594,13.425 1.037,26.851 1.357,40.234c0.585,1.969 2.04,3.075 4.436,3.377c15.933,-0.561 31.778,-0.855 47.436,-0.855c2.67,-0.293 3.983,-1.542 3.983,-3.762l0,-40.234c-0.275,-1.961 -1.765,-3.076 -4.435,-3.335c-16.253,0.259 -32.364,0.553 -48.342,0.813Zm-180.962,12.997c-2.67,0.553 -3.85,1.961 -3.575,4.19c1.49,13.124 3.123,26.256 4.888,39.379c0.31,2.229 1.765,3.21 4.436,2.95c15.667,-1.668 31.361,-3.21 47.028,-4.617c2.36,-0.294 3.531,-1.542 3.531,-3.763c-1.171,-13.132 -2.351,-26.423 -3.531,-39.806c-0.585,-2.229 -2.218,-3.21 -4.888,-2.95c-15.978,1.408 -31.911,2.95 -47.889,4.617Zm227.538,-165.937c-17.433,0.293 -34.723,0.562 -51.872,0.855c-2.981,0.553 -4.436,1.802 -4.436,3.763c0.275,13.425 0.728,26.808 1.313,40.233c0.311,2.221 1.766,3.335 4.436,3.335c17.158,-0.553 34.173,-0.812 51.012,-0.812c2.945,-0.302 4.435,-1.542 4.435,-3.805l0,-40.192c-0.31,-1.969 -1.907,-3.084 -4.888,-3.377Zm0.905,76.704c-16.883,0.26 -33.579,0.688 -50.151,1.241c-2.945,-0 -4.436,1.114 -4.436,3.335c0.595,13.425 1.047,26.85 1.358,40.234c0.585,2.229 2.076,3.377 4.435,3.377c16.564,-0.562 32.958,-0.855 49.247,-0.855c2.625,-0.293 4.116,-1.542 4.435,-3.763c-0.319,-13.425 -0.452,-26.808 -0.452,-40.233c-0.311,-1.961 -1.766,-3.076 -4.436,-3.336Zm-3.575,-315.541c-19.198,0.293 -38.432,0.721 -57.665,1.282c-2.946,0.26 -4.569,1.534 -4.844,3.763c0.585,13.383 1.002,26.808 1.313,40.233c0.585,1.928 2.36,3.042 5.34,3.336c18.914,-0.855 37.705,-1.24 56.308,-1.24c3.256,-0.302 5.03,-1.543 5.341,-3.805c-0.311,-13.124 -0.453,-26.381 -0.453,-39.806c-0.31,-2.221 -2.075,-3.47 -5.34,-3.763Zm1.81,159.225c-18.063,0.293 -35.939,0.72 -53.682,1.282c-2.981,0.26 -4.578,1.533 -4.889,3.763c0.586,13.123 1.18,26.381 1.766,39.806c0.31,2.22 1.765,3.335 4.436,3.335c17.743,-0.553 35.353,-0.813 52.777,-0.813c2.98,-0.302 4.613,-1.542 4.888,-3.804c-0.275,-13.384 -0.453,-26.809 -0.453,-40.192c-0.275,-1.969 -1.898,-3.084 -4.843,-3.377Zm-0.905,-79.613c-18.648,0.294 -37.119,0.721 -55.448,1.282c-3.256,0.26 -4.888,1.534 -4.888,3.763c0.311,13.124 0.763,26.381 1.357,39.806c0.275,2.221 1.899,3.336 4.844,3.336c18.338,-0.26 36.534,-0.553 54.587,-0.813c2.945,-0.302 4.569,-1.542 4.888,-3.805c0,-13.383 -0.177,-26.674 -0.452,-39.806c-0.311,-2.221 -1.943,-3.469 -4.888,-3.763Zm-191.192,136.607c-1.18,-13.124 -2.493,-26.381 -3.983,-39.806c-0.31,-1.961 -1.907,-2.95 -4.888,-2.95c-17.743,1.709 -35.486,3.503 -53.23,5.472c-2.945,0.26 -4.435,1.534 -4.435,3.763c1.49,13.425 3.122,26.682 4.888,39.806c0.585,2.229 2.36,3.21 5.341,2.95c17.148,-1.97 34.439,-3.637 51.872,-5.045c2.98,-0.553 4.435,-1.961 4.435,-4.19Zm6.202,108.516c-16.839,1.667 -33.544,3.377 -50.107,5.044c-2.67,0.554 -3.983,1.961 -3.983,4.191l5.296,39.378c0.319,2.23 1.81,3.336 4.436,3.336c16.288,-1.928 32.541,-3.629 48.793,-5.003c2.671,-0.294 4.028,-1.542 4.028,-3.763c-1.215,-13.425 -2.537,-26.683 -4.028,-39.806c-0.275,-2.263 -1.765,-3.377 -4.435,-3.377Zm-144.572,10.902c3.221,19.836 6.929,42.036 11.09,66.615c4.116,24.587 8.277,49.301 12.402,74.182c4.126,24.847 7.967,47.893 11.542,69.137c16.253,1.115 33.544,1.802 51.872,2.095c-18.018,-128.52 -36.071,-256.712 -54.09,-384.679c0,-2.22 1.455,-3.628 4.436,-4.19c50.87,-6.411 101.713,-11.162 152.582,-14.238c2.671,-0.26 4.889,-1.114 6.654,-2.522c1.766,-1.375 2.67,-3.201 2.67,-5.431c-3.575,-50.834 -7.106,-101.677 -10.637,-152.512c0.275,-2.229 1.899,-3.503 4.844,-3.762c57.391,-3.378 114.603,-4.911 171.683,-4.618c3.256,-0 5.021,1.115 5.341,3.335c-1.216,181.584 -2.396,363.167 -3.576,544.717c17.158,-2.523 34.307,-5.171 51.464,-7.953c6.202,-192.453 12.403,-384.805 18.649,-576.997c-0,-1.928 -1.047,-3.629 -3.123,-5.003c-1.766,-1.408 -4.126,-2.229 -7.106,-2.523c-99.353,-2.522 -198.431,0.294 -297.198,8.38c-2.946,0.294 -5.474,1.115 -7.514,2.523c-1.81,1.374 -2.671,3.21 -2.671,5.43c5.022,50.575 9.91,101.284 14.621,152.127c-0.275,2.221 -1.766,3.469 -4.436,3.763c-52.05,4.743 -103.931,10.735 -155.705,18.001c-2.626,0.561 -4.711,1.667 -6.201,3.377c-1.766,1.374 -2.493,3.201 -2.218,5.43c8.286,49.427 16.563,99.021 24.849,148.75c3.256,18.989 6.512,37.845 9.776,56.566Zm86.046,-38.138c-1.491,-13.383 -3.123,-26.675 -4.888,-39.806c-0,-2.221 1.313,-3.629 3.983,-4.191c17.468,-1.667 34.759,-3.335 51.916,-5.003c2.671,0 4.294,1.107 4.889,3.336l3.531,39.379c-0,2.229 -1.313,3.637 -3.984,4.19c-16.882,1.408 -33.721,3.075 -50.559,5.045c-2.67,-0 -4.303,-0.981 -4.888,-2.95Z" style="fill:#fff;"/><path d="M672.164,599.438c11.817,-143.612 23.492,-287.325 35.034,-431.197c0.31,-1.928 2.076,-2.908 5.34,-2.908c46.399,3.335 92.832,7.953 139.275,13.81c2.945,0.562 4.436,1.97 4.436,4.191c-18.648,129.634 -37.252,259.234 -55.9,388.868c16.563,-3.93 32.816,-7.827 48.794,-11.757c8.561,-51.396 17.158,-102.658 25.71,-153.753c-0,-0.301 -0,-0.301 -0,0c2.084,-12.57 4.16,-24.755 6.245,-36.471c12.092,-71.525 24.078,-143.151 35.895,-214.936c0.319,-1.969 -0.408,-3.637 -2.218,-5.045c-1.455,-1.668 -3.673,-2.782 -6.654,-3.335c-80.705,-11.758 -161.906,-19.845 -243.516,-24.328c-2.945,-0 -5.474,0.561 -7.514,1.667c-1.81,1.149 -2.812,2.816 -3.123,5.045c-9.182,159.518 -18.328,319.003 -27.519,478.529c15.392,-2.815 30.642,-5.598 45.715,-8.38Zm67.85,-316.354c-1.455,12.268 -2.804,24.579 -3.984,36.856c0.311,2.229 1.766,3.503 4.436,3.763c16.253,1.667 32.541,3.377 48.794,5.045c2.67,-0 4.293,-0.981 4.888,-2.95c1.455,-12.277 3.078,-24.579 4.888,-36.857c0,-2.229 -1.49,-3.637 -4.436,-4.19c-16.572,-1.969 -33.135,-3.637 -49.698,-5.045c-2.946,0 -4.578,1.115 -4.888,3.378Zm58.117,-28.518c2.946,-0 4.747,-0.981 5.341,-2.908c1.455,-12.311 3.078,-24.588 4.844,-36.898c-0.275,-2.221 -1.766,-3.629 -4.436,-4.191c-17.149,-1.961 -34.271,-3.628 -51.42,-5.003c-2.98,-0.301 -4.755,0.688 -5.34,2.908c-1.18,12.311 -2.36,24.588 -3.531,36.899c-0,2.22 1.455,3.628 4.436,4.19c16.838,1.374 33.543,3.042 50.106,5.003Zm-65.632,102.658c-1.215,12.31 -2.395,24.587 -3.575,36.898c0,2.221 1.358,3.629 3.983,4.19c15.703,1.374 31.37,2.908 47.029,4.576c2.67,-0 4.302,-0.947 4.888,-2.908c1.49,-12.311 3.123,-24.588 4.888,-36.899c0,-2.22 -1.49,-3.628 -4.436,-4.19l-47.933,-5.003c-2.626,0 -4.258,1.115 -4.844,3.336Zm-15.117,150.031c-1.171,12.269 -2.351,24.58 -3.531,36.857c0,2.229 1.313,3.637 3.984,4.19c14.487,1.114 28.974,2.522 43.497,4.19c2.626,0.293 4.258,-0.687 4.844,-2.95c1.49,-12.269 2.981,-24.579 4.436,-36.856c-0,-2.23 -1.171,-3.637 -3.531,-4.19c-15.073,-1.668 -30.013,-3.21 -44.811,-4.618c-2.67,0 -4.293,1.115 -4.888,3.377Zm12.447,-78.372c15.383,1.668 30.74,3.21 46.123,4.618c2.946,0.553 4.294,1.961 3.984,4.19c-1.455,12.277 -2.946,24.579 -4.436,36.856c-0.586,2.229 -2.218,3.377 -4.888,3.377c-15.073,-1.969 -30.146,-3.502 -45.219,-4.617c-2.67,-0.562 -3.983,-1.97 -3.983,-4.19c1.171,-12.311 2.351,-24.588 3.531,-36.898c0.585,-2.221 2.218,-3.336 4.888,-3.336Z" style="fill:#fff;"/><path d="M1499.44,388.65l0,-0.428c-0.31,0 -0.594,-0.385 -0.905,-1.24l-1.313,-0.855l0,0.428c-3.85,-1.961 -10.051,-3.21 -18.648,-3.763c-8.561,-0.553 -17.149,-0.687 -25.71,-0.428c-8.871,0.294 -15.392,0.428 -19.508,0.428c-2.085,-0.553 -4.613,-1.24 -7.559,-2.095c-2.945,-0.553 -3.983,-0.687 -3.123,-0.428c1.216,0.562 2.218,1.115 3.123,1.668c-0.905,-0.26 -1.765,-0.385 -2.67,-0.385c-6.787,-0.855 -16.386,0.125 -28.833,2.908c-12.127,2.815 -24.849,6.712 -38.156,11.757c-3.531,1.374 -11.223,4.316 -23.04,8.766c-11.852,4.492 -26.481,10.09 -43.905,16.76c-17.469,6.453 -36.702,13.56 -57.666,21.378c-7.106,-2.22 -15.844,-5.003 -26.206,-8.38c0.319,-0.26 0.763,-0.553 1.357,-0.813c2.945,-2.816 4.711,-5.732 5.297,-8.808c0.594,-3.377 0.594,-6.285 -0,-8.807c-0.276,-2.523 -2.041,-5.045 -5.297,-7.526c-3.256,-2.815 -7.692,-4.19 -13.307,-4.19c-4.747,0.26 -11.4,1.534 -19.961,3.763c-8.597,2.522 -16.705,5.171 -24.397,7.953c-19.509,-6.419 -38.299,-12.571 -56.352,-18.428c-18.018,-6.16 -33.127,-11.196 -45.219,-15.093c-11.852,-3.897 -18.337,-5.992 -19.553,-6.285c-1.765,-0.294 -4.116,-0.428 -7.062,-0.428c-2.67,0 -5.03,0.294 -7.106,0.855l-21.318,9.193l0.453,1.282c0.31,0.26 5.34,2.783 15.072,7.526c9.777,4.751 21.904,10.768 36.391,18.043c14.488,7.232 29.144,14.665 43.906,22.19c15.073,7.266 28.105,13.685 39.061,19.283c10.912,5.305 17.743,8.506 20.37,9.621c3.575,1.969 6.245,4.483 8.011,7.567c-30.776,11.716 -59.609,22.484 -86.498,32.239c-17.468,-6.972 -34.032,-14.372 -49.699,-22.191c-15.658,-7.827 -32.505,-15.227 -50.559,-22.233l-34.59,12.571l29.249,34.376l-25.709,12.57l46.575,11.715l4.436,8.808c-48.483,17.054 -100.257,32.968 -155.252,47.759c-54.995,15.093 -111.037,28.518 -168.108,40.234c-56.805,12.017 -112.385,21.805 -166.794,29.331c-54.135,7.567 -104.552,12.31 -151.27,14.238c-46.708,1.969 -87.535,0.72 -122.436,-3.763c-34.582,-4.743 -60.886,-13.383 -78.939,-25.954c-18.054,-12.57 -25.435,-29.632 -22.179,-51.136c3.53,-21.504 19.961,-48.186 49.246,-80.04l-1.358,-7.525c-48.793,36.856 -81.884,68.416 -99.352,94.705c-17.433,26.515 -21.585,48.186 -12.403,64.947c9.147,16.76 29.285,29.029 60.336,36.856c30.731,8.087 70.067,12.018 117.956,11.716c47.933,-0 101.89,-3.47 161.906,-10.476c60.061,-7.232 123.794,-17.707 191.192,-31.425c67.131,-13.384 135.602,-29.591 205.403,-48.572c70.068,-19.283 138.823,-40.661 206.264,-64.134l11.95,62.039l38.157,-10.903l5.749,-58.662c16.288,-1.969 31.228,-3.93 44.81,-5.858c11.542,-1.709 23.67,-3.637 36.391,-5.899c12.997,-2.221 25.125,-4.45 36.347,-6.671c11.542,-1.969 20.866,-3.637 27.972,-5.045c7.381,-1.668 11.09,-2.522 11.09,-2.522c0.275,-0 0.86,-0.126 1.765,-0.428c1.491,2.263 2.804,4.618 3.984,7.14c1.179,2.523 2.528,4.743 3.983,6.713c1.215,1.667 4.436,7.4 9.776,17.188c5.022,9.754 11.09,21.503 18.196,35.188c7.106,13.384 14.168,26.943 21.274,40.619c6.796,13.426 12.58,24.881 17.291,34.376c4.755,9.235 7.248,14.372 7.558,15.52c0.905,2.221 3.85,2.481 8.872,0.813c5.021,-1.961 10.051,-4.19 15.073,-6.712c4.746,-2.783 7.691,-4.45 8.871,-5.003c5.03,-3.076 7.559,-6.713 7.559,-10.903c0.275,-4.19 0.275,-6.419 -0,-6.713l-13.308,-76.235c5.616,-1.969 10.496,-3.93 14.621,-5.899c4.436,-2.221 7.691,-4.023 9.776,-5.431c2.946,-2.782 4.888,-5.992 5.749,-9.62c0.594,-3.637 0.594,-6.713 0,-9.235c-0.275,-2.783 -2.351,-5.733 -6.201,-8.808c-3.531,-2.782 -8.286,-4.19 -14.212,-4.19c-4.117,-0 -9.599,0.98 -16.386,2.95l-8.011,-46.519c14.212,-5.305 27.972,-10.341 41.279,-15.093c13.307,-5.003 25.124,-9.495 35.486,-13.383c10.327,-3.931 18.196,-6.847 23.492,-8.808c31.956,-12.863 54.72,-24.881 68.303,-36.043c13.901,-11.163 20.413,-19.283 19.552,-24.286c0,-0.562 -0.177,-0.989 -0.452,-1.282Zm-923.096,406.014c20.413,1.71 45.99,0.989 76.721,-2.095c31.051,-3.335 65.082,-8.506 102.023,-15.478c36.977,-7.266 74.548,-15.78 112.705,-25.568c38.112,-10.048 74.637,-20.951 109.537,-32.666c34.901,-11.758 65.81,-23.767 92.699,-36.044c26.934,-12.31 47.481,-24.328 61.693,-36.043c13.893,-12.018 19.198,-23.18 15.934,-33.521c-3.221,-10.341 -17.566,-19.409 -43.001,-27.236l19.056,-9.621c37.846,8.934 62.101,19.409 72.738,31.426c10.957,12.269 10.815,25.267 -0.408,38.952c-11.267,13.685 -30.465,27.529 -57.665,41.474c-27.209,13.978 -59.883,27.529 -98.04,40.66c-38.157,12.831 -78.806,24.421 -121.984,34.762c-43.178,10.609 -86.223,19.149 -129.09,25.568c-42.593,6.419 -82.373,10.341 -119.314,11.715c-36.977,1.408 -68.169,-0.687 -93.604,-6.285Z" style="fill:#fff;"/><path d="M1870.33,598.548c-11.356,8.182 -25.811,13.814 -43.287,16.873c-17.397,3.176 -35.941,4.796 -55.541,4.796c-23.914,-0 -46.262,-3.769 -67.065,-11.253c-20.849,-7.611 -38.995,-19.181 -54.473,-34.731c-15.523,-15.551 -27.81,-35.399 -36.917,-59.544c-9.13,-24.146 -13.649,-52.801 -13.649,-86.008c-0,-34.615 5.007,-64.011 15.068,-88.157c10.039,-24.146 23.302,-43.877 39.756,-59.216c16.409,-15.296 34.862,-26.506 55.359,-33.577c20.451,-7.029 41.254,-10.586 62.455,-10.586c22.711,0 41.209,1.164 55.529,3.472c14.421,2.234 26.799,5.251 37.087,9.104l-11.355,38.701c-18.226,-8.151 -44.185,-12.237 -77.888,-12.237c-15.535,-0 -30.831,2.646 -45.956,7.939c-15.171,5.293 -28.707,13.973 -40.63,25.966c-11.981,12.036 -21.565,27.745 -28.753,47.138c-7.097,19.435 -10.64,43.253 -10.64,71.453c0,25.384 3.373,47.593 10.118,66.657c6.825,19.107 16.227,34.986 28.207,47.635c11.935,12.693 25.948,22.241 42.05,28.613c16.057,6.405 33.578,9.591 52.519,9.591c17.034,-0 31.853,-1.567 44.537,-4.795c12.639,-3.187 23.336,-7.273 32.113,-12.237l11.356,34.403Zm190.024,-208.568c-11.356,-3.515 -22.177,-5.293 -32.466,-5.293c-16.238,0 -29.059,4.213 -38.506,12.565c-9.494,8.267 -15.387,18.779 -17.738,31.429l0,185.248l-45.422,-0l0,-264.64l31.932,-0l8.516,32.254l2.135,0c7.188,-11.993 15.83,-21.256 25.902,-27.787c10.027,-6.489 22.802,-9.76 38.326,-9.76c11.003,0 23.29,1.778 36.905,5.293l-9.584,40.691Zm266.061,202.778c-11.356,8.521 -25.687,15.222 -42.936,20.176c-17.169,4.837 -35.395,7.283 -54.654,7.283c-21.553,-0 -40.278,-3.271 -56.244,-9.76c-15.875,-6.489 -28.923,-15.794 -39.211,-27.957c-10.197,-12.237 -17.737,-26.792 -22.711,-43.666c-4.883,-16.947 -7.279,-36.054 -7.279,-57.225c0,-45.201 10.742,-79.604 32.295,-103.21c21.644,-23.574 52.52,-35.398 92.616,-35.398c12.866,-0 25.732,1.323 38.507,3.97c12.866,2.646 24.403,7.695 34.601,15.052c10.288,7.4 18.634,17.869 25.016,31.429c6.472,13.56 9.754,31.503 9.754,53.754c0,11.697 -1.147,24.6 -3.361,38.701l-182.404,-0c-0,15.465 1.692,29.195 5.144,41.188c3.418,12.036 8.743,22.166 15.966,30.434c7.188,8.267 16.556,14.64 28.037,19.022c11.582,4.425 25.731,6.616 42.413,6.616c12.775,-0 25.595,-2.075 38.495,-6.288c12.866,-4.181 22.541,-9.135 28.922,-14.883l17.034,30.762Zm-97.59,-212.707c-22.348,-0 -40.278,5.462 -53.757,16.376c-13.4,10.913 -21.383,29.607 -23.949,56.071l140.695,0c0,-26.792 -5.496,-45.528 -16.499,-56.23c-10.913,-10.798 -26.391,-16.217 -46.49,-16.217Zm356.02,-30.762l65.294,154.486l14.195,50.938l1.238,-0l10.651,-51.933l50.566,-153.491l43.117,-0l-95.284,270.43l-22.178,-0l-74.344,-174.662l-10.822,-43.338l-1.772,0l-11.355,43.835l-71.506,174.165l-22.178,-0l-98.657,-270.43l49.329,-0l56.244,153.988l9.584,51.436l0.534,-0l13.66,-52.431l60.855,-152.993l32.829,-0Zm399.398,264.64l-0,-149.85c-0,-14.1 -0.67,-26.347 -1.954,-36.721c-1.328,-10.342 -3.86,-19.065 -7.63,-26.136c-3.816,-7.029 -9.221,-12.322 -16.318,-15.879c-7.018,-3.514 -16.148,-5.292 -27.503,-5.292c-17.397,-0 -31.898,4.964 -43.47,14.883c-11.492,9.844 -19.52,22.124 -24.13,36.891l-0,182.104l-45.422,-0l-0,-264.64l31.931,-0l8.517,32.254l2.135,0c10.288,-11.252 22.086,-20.43 35.486,-27.618c13.479,-7.283 30.955,-10.924 52.52,-10.924c18.18,-0 33.044,3.271 44.525,9.76c11.582,6.531 20.633,17.868 27.151,34.075c8.607,-13.772 20.576,-24.527 35.838,-32.254c15.353,-7.696 32.738,-11.581 52.167,-11.581c15.841,-0 29.275,1.651 40.279,4.965c11.003,3.313 20.053,9.22 27.151,17.699c7.177,8.521 12.411,19.975 15.614,34.403c3.281,14.47 4.962,32.826 4.962,55.077l0,158.784l-45.422,-0l-0,-159.282c-0,-12.649 -0.704,-23.69 -2.124,-33.08c-1.34,-9.347 -3.997,-17.117 -7.994,-23.32c-3.895,-6.161 -9.357,-10.755 -16.318,-13.729c-7.006,-2.975 -16.148,-4.467 -27.503,-4.467c-18.941,-0 -33.715,4.964 -44.355,14.883c-10.651,9.844 -18.237,23.902 -22.711,42.183l-0,176.812l-45.422,-0Zm289.339,-245.12c14.286,-8.024 31.058,-13.984 50.215,-17.869c19.168,-3.969 39.12,-5.949 59.969,-5.949c19.61,0 35.406,2.477 47.375,7.442c11.935,4.964 20.985,11.411 27.151,19.35c6.257,7.939 10.379,16.704 12.423,26.295c2.124,9.516 3.191,18.98 3.191,28.454c-0,21.171 -0.625,41.845 -1.772,62.021c-1.067,20.102 -1.601,39.124 -1.601,57.067c0,13.147 0.534,25.553 1.601,37.208c1.147,11.581 3.282,22.293 6.382,32.096l-33.533,-0l-11.889,-37.05l-2.839,0c-3.463,4.954 -7.722,9.877 -12.775,14.714c-5.099,4.764 -11.265,9.019 -18.453,12.745c-7.233,3.631 -15.568,6.69 -25.016,9.093c-9.493,2.52 -20.224,3.8 -32.295,3.8c-12.196,0 -23.506,-1.778 -33.885,-5.292c-10.425,-3.515 -19.43,-8.511 -26.97,-15.053c-7.585,-6.616 -13.57,-14.471 -17.919,-23.648c-4.258,-9.136 -6.393,-19.562 -6.393,-31.26c0,-15.55 3.373,-28.496 10.118,-38.87c6.825,-10.342 16.409,-18.609 28.741,-24.812c12.287,-6.161 27.015,-10.586 44.184,-13.232c17.249,-2.647 36.281,-3.97 57.13,-3.97l15.614,-0c5.053,-0 10.288,0.339 15.614,0.995c1.158,-10.586 1.771,-20.092 1.771,-28.613c0,-19.393 -4.212,-32.953 -12.593,-40.691c-8.301,-7.812 -23.426,-11.739 -45.422,-11.739c-6.393,-0 -13.309,0.455 -20.758,1.323c-7.37,0.91 -14.91,2.149 -22.711,3.8c-7.722,1.577 -15.035,3.472 -22.007,5.79c-7.007,2.319 -13.127,4.88 -18.453,7.611l-14.195,-31.756Zm80.557,212.368c10.64,-0 20.099,-1.323 28.389,-3.97c8.38,-2.646 15.614,-5.991 21.643,-10.088c6.03,-4.054 11.004,-8.595 14.91,-13.56c3.986,-4.965 6.961,-9.675 8.869,-14.227l-0,-43.994c-5.326,-0.328 -10.731,-0.54 -16.148,-0.667c-5.45,-0.201 -10.822,-0.328 -16.147,-0.328c-11.708,0 -23.2,0.625 -34.419,1.821c-11.129,1.238 -20.94,3.557 -29.456,6.944c-8.517,3.313 -15.387,7.897 -20.577,13.73c-5.098,5.875 -7.631,13.189 -7.631,21.996c0,12.364 4.702,22.495 14.195,30.434c9.448,7.939 21.553,11.909 36.372,11.909Zm168.119,-231.888l44.355,-0l-0,-52.431l45.422,-12.078l-0,64.509l77.184,-0l-0,37.049l-77.184,0l-0,146.547c-0,18.44 2.396,31.418 7.279,39.029c4.962,7.527 13.297,11.253 25.016,11.253c9.8,-0 18.135,-0.91 25.016,-2.816c6.825,-1.979 14.411,-4.552 22.712,-7.77l10.288,32.413c-10.288,4.552 -21.553,8.194 -33.715,10.925c-12.06,2.847 -25.107,4.298 -39.029,4.298c-23.063,-0 -39.347,-6.077 -48.795,-18.197c-9.493,-12.121 -14.194,-32.498 -14.194,-61.195l-0,-154.487l-44.355,0l-0,-37.049Zm430.978,243.469c-11.356,8.521 -25.687,15.222 -42.936,20.176c-17.169,4.837 -35.406,7.283 -54.654,7.283c-21.553,-0 -40.278,-3.271 -56.244,-9.76c-15.875,-6.489 -28.923,-15.794 -39.211,-27.957c-10.209,-12.237 -17.749,-26.792 -22.711,-43.666c-4.883,-16.947 -7.279,-36.054 -7.279,-57.225c0,-45.201 10.742,-79.604 32.295,-103.21c21.644,-23.574 52.52,-35.398 92.616,-35.398c12.866,-0 25.732,1.323 38.507,3.97c12.866,2.646 24.392,7.695 34.6,15.052c10.288,7.4 18.624,17.869 25.017,31.429c6.472,13.56 9.754,31.503 9.754,53.754c0,11.697 -1.147,24.6 -3.372,38.701l-182.394,-0c0,15.465 1.681,29.195 5.144,41.188c3.418,12.036 8.733,22.166 15.966,30.434c7.188,8.267 16.545,14.64 28.037,19.022c11.572,4.425 25.732,6.616 42.402,6.616c12.775,-0 25.595,-2.075 38.507,-6.288c12.865,-4.181 22.529,-9.135 28.922,-14.883l17.034,30.762Zm-97.59,-212.707c-22.359,-0 -40.278,5.462 -53.757,16.376c-13.4,10.913 -21.383,29.607 -23.96,56.071l140.706,0c0,-26.792 -5.496,-45.528 -16.499,-56.23c-10.913,-10.798 -26.391,-16.217 -46.49,-16.217Zm303.58,161.927c-0,-10.585 -3.453,-18.853 -10.289,-24.812c-6.745,-6.034 -15.171,-11.115 -25.197,-15.212c-9.937,-4.054 -20.884,-7.939 -32.818,-11.58c-11.98,-3.716 -22.984,-8.479 -33,-14.227c-10.072,-5.822 -18.543,-13.307 -25.379,-22.495c-6.745,-9.262 -10.107,-21.669 -10.107,-37.208c0,-25.353 7.711,-43.92 23.234,-55.744c15.614,-11.782 37.178,-17.699 64.772,-17.699c20.44,-0 37.61,1.651 51.452,4.965c13.842,3.313 25.811,7.272 36.02,11.908l-10.822,34.901c-8.653,-3.842 -19.123,-7.283 -31.409,-10.257c-12.333,-2.975 -25.505,-4.467 -39.563,-4.467c-16.682,-0 -28.923,2.646 -36.735,7.939c-7.722,5.293 -11.526,14.47 -11.526,27.459c-0,9.177 3.361,16.333 10.106,21.499c6.836,5.092 15.307,9.675 25.38,13.73c10.016,4.096 21.019,8.066 32.999,11.908c11.935,3.885 22.882,9.019 32.818,15.381c10.027,6.288 18.453,14.312 25.198,23.987c6.836,9.718 10.288,22.495 10.288,38.373c-0,11.369 -2.033,21.997 -6.03,31.916c-3.906,9.844 -10.072,18.281 -18.453,25.31c-8.289,7.071 -18.589,12.575 -30.875,16.545c-12.333,4.044 -26.743,6.119 -43.288,6.119c-21.644,-0 -40.051,-1.948 -55.177,-5.791c-15.171,-3.842 -27.821,-8.437 -37.973,-13.729l13.661,-36.055c8.608,4.626 19.918,8.892 33.885,12.735c14.07,3.885 28.298,5.79 42.765,5.79c16.193,-0 29.547,-2.985 40.097,-8.934c10.651,-5.949 15.966,-16.704 15.966,-32.255Z" style="fill:#fff;fill-rule:nonzero;"/></g></g></svg>