<?xml version="1.0" encoding="UTF-8" standalone="no"?><!DOCTYPE svg PUBLIC "-//W3C//DTD SVG 1.1//EN" "http://www.w3.org/Graphics/SVG/1.1/DTD/svg11.dtd"><svg width="100%" height="100%" viewBox="0 0 71 87" version="1.1" xmlns="http://www.w3.org/2000/svg" xmlns:xlink="http://www.w3.org/1999/xlink" xml:space="preserve" xmlns:serif="http://www.serif.com/" style="fill-rule:evenodd;clip-rule:evenodd;stroke-linejoin:round;stroke-miterlimit:2;"><rect id="Artboard1" x="0" y="0" width="70.638" height="86.121" style="fill:none;"/><path d="M5.874,15.426c-0,-6.931 5.754,-12.634 12.748,-12.634c6.994,0 12.749,5.703 12.749,12.634l-0,38.154c0.574,0.582 1.105,1.199 1.589,1.845c2.266,3.03 3.51,6.721 3.51,10.534c0,9.703 -8.057,17.688 -17.848,17.688c-9.791,-0 -17.848,-7.985 -17.848,-17.688c0,-4.627 1.832,-9.074 5.1,-12.379l-0,-38.154Zm12.748,-7.58c-4.196,-0 -7.649,3.421 -7.649,7.58l-0,40.363l-0.852,0.758c-2.703,2.395 -4.25,5.824 -4.25,9.417c-0,6.931 5.755,12.634 12.749,12.634c6.993,0 12.748,-5.703 12.748,-12.634c0,-3.593 -1.547,-7.022 -4.25,-9.417l-0.847,-0.763l0,-40.358c0,-4.159 -3.453,-7.58 -7.649,-7.58Z" style="fill-rule:nonzero;"/><path d="M26.004,66.226c-0.002,4.157 -3.454,7.576 -7.649,7.576c-4.196,0 -7.649,-3.421 -7.649,-7.58c0,-3.205 2.051,-6.079 5.1,-7.147l-0,-43.385c-0,-1.386 1.151,-2.526 2.549,-2.526c1.399,-0 2.55,1.14 2.55,2.526l0,43.385c3.05,1.069 5.101,3.945 5.099,7.151Z" style="fill:#a70505;fill-rule:nonzero;"/><path d="M39.952,12.899c1.399,0 2.55,1.141 2.55,2.527l0,5.054c0,1.386 -1.151,2.526 -2.55,2.526c-1.398,0 -2.549,-1.14 -2.549,-2.526l-0,-5.054c-0,-1.386 1.151,-2.527 2.549,-2.527Zm21.637,8.879c0.989,0.98 0.989,2.593 0,3.573l-3.605,3.578c-0.479,0.474 -1.128,0.741 -1.805,0.741c-1.401,0 -2.553,-1.142 -2.553,-2.53c-0,-0.671 0.269,-1.315 0.748,-1.789l3.61,-3.573c0.989,-0.98 2.616,-0.98 3.605,0Zm-24.186,8.809c-0,-1.386 1.151,-2.527 2.549,-2.527c8.393,-0 15.299,6.844 15.299,15.161c-0,8.317 -6.906,15.16 -15.299,15.16c-1.398,0 -2.549,-1.14 -2.549,-2.526c-0,-1.387 1.151,-2.527 2.549,-2.527c5.595,-0 10.199,-4.563 10.199,-10.107c0,-5.545 -4.604,-10.108 -10.199,-10.108c-1.398,0 -2.549,-1.14 -2.549,-2.526Zm22.947,12.634c0,-1.387 1.151,-2.527 2.55,-2.527l5.099,-0c1.399,-0 2.55,1.14 2.55,2.527c0,1.386 -1.151,2.526 -2.55,2.526l-5.099,0c-1.399,0 -2.55,-1.14 -2.55,-2.526Zm-5.976,14.291c0.478,-0.475 1.128,-0.742 1.805,-0.742c0.677,-0 1.327,0.267 1.805,0.742l3.605,3.578c0.459,0.471 0.716,1.101 0.716,1.755c0,1.387 -1.151,2.527 -2.55,2.527c-0.66,0 -1.296,-0.254 -1.771,-0.709l-3.61,-3.573c-0.48,-0.474 -0.749,-1.118 -0.749,-1.789c-0,-0.671 0.269,-1.315 0.749,-1.789Zm-14.422,5.923c1.399,-0 2.55,1.141 2.55,2.527l0,5.053c0,1.386 -1.151,2.527 -2.55,2.527c-1.398,0 -2.549,-1.141 -2.549,-2.527l-0,-5.053c-0,-1.386 1.151,-2.527 2.549,-2.527Z" style="fill:#a70505;fill-rule:nonzero;"/></svg>