<?xml version="1.0" encoding="UTF-8" standalone="no"?>
<!DOCTYPE svg PUBLIC "-//W3C//DTD SVG 1.1//EN" "http://www.w3.org/Graphics/SVG/1.1/DTD/svg11.dtd">
<svg width="100%" height="100%" viewBox="0 0 761 795" version="1.1" xmlns="http://www.w3.org/2000/svg" xmlns:xlink="http://www.w3.org/1999/xlink" xml:space="preserve" xmlns:serif="http://www.serif.com/" style="fill-rule:evenodd;clip-rule:evenodd;stroke-linejoin:round;stroke-miterlimit:2;">
    <g transform="matrix(1,0,0,1,-6699.08,-692.365)">
        <g id="B001" transform="matrix(0.591814,0,0,0.68475,2938.9,735.299)">
            <rect x="6353.65" y="-62.7" width="1285.35" height="1159.95" style="fill:none;"/>
            <clipPath id="_clip1">
                <rect x="6353.65" y="-62.7" width="1285.35" height="1159.95"/>
            </clipPath>
            <g clip-path="url(#_clip1)">
                <g transform="matrix(-1.68972,0,0,1.46039,18828.3,-246.183)">
                    <g transform="matrix(4.16667,0,0,4.16667,4134.92,-885.334)">
                        <path d="M628.548,391.547C628.548,391.547 583.224,321.619 670.634,269.173C687.027,259.337 703.828,248.173 722.979,244.672C742.066,241.183 759.855,251.801 778.766,249.1C778.766,249.1 762.578,263.345 761.931,276.294C761.931,276.294 723.082,385.072 644.089,396.728C644.089,396.728 635.023,398.022 628.548,391.547Z" style="fill:rgb(143,194,62);fill-rule:nonzero;"/>
                    </g>
                    <g transform="matrix(4.16667,0,0,4.16667,4134.92,-885.334)">
                        <path d="M631.786,381.835C628.194,378.14 619.545,359.709 631.04,362.311C632.441,355.069 623.341,351.255 625.408,344.769C626.268,342.065 629.939,341.513 631.008,339.131C631.671,337.651 630.035,335.502 630.445,334.556C631.131,332.969 633.236,333.01 633.756,331.346C635.335,326.301 633.005,320.273 634.377,315.144C637.001,305.318 640.902,314.089 647.053,311.922C652.709,309.927 650.915,302.757 651.21,298.309C651.917,287.737 654.757,292.474 661.744,289.132C668.04,286.121 666.366,275.772 673.872,274.499C677.3,273.918 678.616,276.889 681.851,275.804C684.127,275.04 686.17,271.03 686.838,269.172C688.332,265.013 686.598,259.574 693.943,260.083C700.345,260.525 698.11,265.17 704.785,259.529C705.12,262.953 708.729,264.74 711.569,262.758C715.39,260.092 711.1,254.551 716.604,254.249C720.222,254.052 722.239,258.852 726.835,258.828C732.217,258.8 736.152,254.742 739.926,251.08C744.666,256.891 742.261,255.325 750.147,253.73C756.946,252.357 756.491,254.005 755.312,258.832C754.658,261.519 752.808,261.626 753.324,264.816C753.619,266.648 757.125,266.797 756.815,269.865C756.46,273.397 750.887,274.287 751.007,279.436C753.775,279.439 754.713,280.64 754.159,283.415C753.531,286.553 752.186,285.004 750.291,286.638C745.878,290.444 743.704,289.704 746.504,296.396C747.167,297.983 750.413,296.687 750.339,299.604C750.307,300.908 746.25,304.776 745.097,305.335C743.118,306.292 740.461,304.502 738.606,306.002C736.484,307.717 736.455,311.937 736.58,314.399C733.014,314.581 725.841,312.216 723.1,313.189C718.216,314.92 718.628,322.254 723.521,323.548C722.312,324.832 722.128,326.836 721.22,328.127C730.469,331.526 718.147,334.23 715.393,335.17C718.016,353.982 689.209,327.904 693.218,343.775C693.998,346.864 700.07,345.396 695.285,349.348C693.788,350.585 687.985,348.103 686.922,350.705C685.699,353.7 697.057,357.738 687.582,359.933C686.437,367.16 692.413,368.762 684.397,372.899C681.094,374.604 679.084,374.238 676.465,377.27C673.692,380.478 674.978,383.754 670.15,385.733C664.345,388.11 658.285,382.479 652.977,386.191C649.792,388.418 652.305,390.629 648.621,392.21C646.505,393.118 642.768,392.227 641.498,390.9" style="fill:rgb(173,201,103);fill-rule:nonzero;"/>
                    </g>
                    <g transform="matrix(4.16667,0,0,4.16667,4134.92,-885.334)">
                        <path d="M759.988,252.337C759.988,252.337 688.686,282.911 633.001,381.977C633.001,381.977 616.813,404.639 597.469,425.864L603.297,434.281C603.297,434.281 621.427,411.619 642.146,377.303C642.146,377.303 697.829,285.359 759.988,252.337Z" style="fill:rgb(193,220,162);fill-rule:nonzero;"/>
                    </g>
                </g>
            </g>
        </g>
    </g>
</svg>
