<?xml version="1.0" encoding="UTF-8" standalone="no"?>
<!DOCTYPE svg PUBLIC "-//W3C//DTD SVG 1.1//EN" "http://www.w3.org/Graphics/SVG/1.1/DTD/svg11.dtd">
<svg width="100%" height="100%" viewBox="0 0 607 1523" version="1.1" xmlns="http://www.w3.org/2000/svg" xmlns:xlink="http://www.w3.org/1999/xlink" xml:space="preserve" xmlns:serif="http://www.serif.com/" style="fill-rule:evenodd;clip-rule:evenodd;stroke-linejoin:round;stroke-miterlimit:2;">
    <g transform="matrix(1,0,0,1,-2491.64,-48.4098)">
        <g id="B010" transform="matrix(0.471927,0,0,1.31226,-506.822,130.688)">
            <rect x="6353.65" y="-62.7" width="1285.35" height="1159.95" style="fill:none;"/>
            <g transform="matrix(2.11897,0,0,1.10445,-7899.97,-30.7298)">
                <g transform="matrix(4.16667,0,0,2.8749,6705.61,-846.876)">
                    <path d="M37.353,287.943C37.353,287.943 130.517,318.61 145.839,417.252C145.839,417.252 163.885,503.943 98.333,564.281C98.333,564.281 7.528,537.293 11.481,425.817C11.481,425.817 -2.444,352.711 37.353,287.943Z" style="fill:rgb(76,135,64);fill-rule:nonzero;"/>
                </g>
                <g transform="matrix(4.16667,0,0,2.8749,6705.61,-846.876)">
                    <path d="M53.71,328.66L83.955,320.17L54.771,333.966L53.71,328.66Z" style="fill:rgb(141,160,77);fill-rule:nonzero;"/>
                </g>
                <g transform="matrix(4.16667,0,0,2.8749,6705.61,-846.876)">
                    <path d="M61.138,354.13L107.833,344.047L61.668,358.905L61.138,354.13Z" style="fill:rgb(141,160,77);fill-rule:nonzero;"/>
                </g>
                <g transform="matrix(4.16667,0,0,2.8749,6705.61,-846.876)">
                    <path d="M64.322,364.742L114.2,352.007L65.914,369.517L64.322,364.742Z" style="fill:rgb(141,160,77);fill-rule:nonzero;"/>
                </g>
                <g transform="matrix(4.16667,0,0,2.8749,6705.61,-846.876)">
                    <path d="M70.689,388.62L101.465,382.783L70.689,391.803L70.689,388.62Z" style="fill:rgb(141,160,77);fill-rule:nonzero;"/>
                </g>
                <g transform="matrix(4.16667,0,0,2.8749,6705.61,-846.876)">
                    <path d="M72.812,397.64L130.119,386.497L74.403,404.007L72.812,397.64Z" style="fill:rgb(141,160,77);fill-rule:nonzero;"/>
                </g>
                <g transform="matrix(4.16667,0,0,2.8749,6705.61,-846.876)">
                    <path d="M75.465,411.436L136.486,397.64L76.526,416.211L75.465,411.436Z" style="fill:rgb(141,160,77);fill-rule:nonzero;"/>
                </g>
                <g transform="matrix(4.16667,0,0,2.8749,6705.61,-846.876)">
                    <path d="M79.179,427.885L124.282,418.865L78.648,433.191L79.179,427.885Z" style="fill:rgb(141,160,77);fill-rule:nonzero;"/>
                </g>
                <g transform="matrix(4.16667,0,0,2.8749,6705.61,-846.876)">
                    <path d="M82.363,443.273L141.792,428.946L82.893,448.58L82.363,443.273Z" style="fill:rgb(141,160,77);fill-rule:nonzero;"/>
                </g>
                <g transform="matrix(4.16667,0,0,2.8749,6705.61,-846.876)">
                    <path d="M84.485,459.192L125.343,452.824L86.077,463.437L84.485,459.192Z" style="fill:rgb(141,160,77);fill-rule:nonzero;"/>
                </g>
                <g transform="matrix(4.16667,0,0,2.8749,6705.61,-846.876)">
                    <path d="M88.2,485.192L142.323,475.11L90.322,488.906L88.2,485.192Z" style="fill:rgb(141,160,77);fill-rule:nonzero;"/>
                </g>
                <g transform="matrix(4.16667,0,0,2.8749,6705.61,-846.876)">
                    <path d="M90.322,496.865L137.017,491.56L89.792,503.232L90.322,496.865Z" style="fill:rgb(141,160,77);fill-rule:nonzero;"/>
                </g>
                <g transform="matrix(4.16667,0,0,2.8749,6705.61,-846.876)">
                    <path d="M94.036,519.151L130.119,514.377L93.506,524.988L94.036,519.151Z" style="fill:rgb(141,160,77);fill-rule:nonzero;"/>
                </g>
                <g transform="matrix(4.16667,0,0,2.8749,6705.61,-846.876)">
                    <path d="M94.567,535.601L108.894,531.356L95.628,540.906L94.567,535.601Z" style="fill:rgb(141,160,77);fill-rule:nonzero;"/>
                </g>
                <g transform="matrix(4.16667,0,0,2.8749,6705.61,-846.876)">
                    <path d="M48.403,314.864L28.24,320.17L49.995,318.047L48.403,314.864Z" style="fill:rgb(141,160,77);fill-rule:nonzero;"/>
                </g>
                <g transform="matrix(4.16667,0,0,2.8749,6705.61,-846.876)">
                    <path d="M55.832,337.15L20.812,345.109L57.423,340.864L55.832,337.15Z" style="fill:rgb(141,160,77);fill-rule:nonzero;"/>
                </g>
                <g transform="matrix(4.16667,0,0,2.8749,6705.61,-846.876)">
                    <path d="M59.015,346.701L16.566,357.314L60.077,350.946L59.015,346.701Z" style="fill:rgb(141,160,77);fill-rule:nonzero;"/>
                </g>
                <g transform="matrix(4.16667,0,0,2.8749,6705.61,-846.876)">
                    <path d="M62.73,361.558L27.709,371.109L64.322,366.864L62.73,361.558Z" style="fill:rgb(141,160,77);fill-rule:nonzero;"/>
                </g>
                <g transform="matrix(4.16667,0,0,2.8749,6705.61,-846.876)">
                    <path d="M66.975,379.599L12.852,390.211L68.566,383.844L66.975,379.599Z" style="fill:rgb(141,160,77);fill-rule:nonzero;"/>
                </g>
                <g transform="matrix(4.16667,0,0,2.8749,6705.61,-846.876)">
                    <path d="M70.689,391.803L29.832,405.068L72.812,397.64L70.689,391.803Z" style="fill:rgb(141,160,77);fill-rule:nonzero;"/>
                </g>
                <g transform="matrix(4.16667,0,0,2.8749,6705.61,-846.876)">
                    <path d="M72.812,407.722L17.627,418.865L73.342,412.497L72.812,407.722Z" style="fill:rgb(141,160,77);fill-rule:nonzero;"/>
                </g>
                <g transform="matrix(4.16667,0,0,2.8749,6705.61,-846.876)">
                    <path d="M75.465,420.987L46.28,426.294L76.526,425.232L75.465,420.987Z" style="fill:rgb(141,160,77);fill-rule:nonzero;"/>
                </g>
                <g transform="matrix(4.16667,0,0,2.8749,6705.61,-846.876)">
                    <path d="M79.71,441.681L19.75,450.702L80.771,445.926L79.71,441.681Z" style="fill:rgb(141,160,77);fill-rule:nonzero;"/>
                </g>
                <g transform="matrix(4.16667,0,0,2.8749,6705.61,-846.876)">
                    <path d="M80.771,456.539L55.301,459.723L81.832,460.783L80.771,456.539Z" style="fill:rgb(141,160,77);fill-rule:nonzero;"/>
                </g>
                <g transform="matrix(4.16667,0,0,2.8749,6705.61,-846.876)">
                    <path d="M81.832,465.56L34.077,476.171L82.363,470.865L81.832,465.56Z" style="fill:rgb(141,160,77);fill-rule:nonzero;"/>
                </g>
                <g transform="matrix(4.16667,0,0,2.8749,6705.61,-846.876)">
                    <path d="M85.016,484.661L44.158,493.682L85.016,489.967L85.016,484.661Z" style="fill:rgb(141,160,77);fill-rule:nonzero;"/>
                </g>
                <g transform="matrix(4.16667,0,0,2.8749,6705.61,-846.876)">
                    <path d="M88.2,501.11L63.26,503.764L89.261,506.947L88.2,501.11Z" style="fill:rgb(141,160,77);fill-rule:nonzero;"/>
                </g>
                <g transform="matrix(4.16667,0,0,2.8749,6705.61,-846.876)">
                    <path d="M89.792,519.151L61.668,523.398L90.853,523.927L89.792,519.151Z" style="fill:rgb(141,160,77);fill-rule:nonzero;"/>
                </g>
                <g transform="matrix(4.16667,0,0,2.8749,6705.61,-846.876)">
                    <path d="M95.129,648.072C95.129,648.072 95.513,428.091 37.353,287.943C37.353,287.943 95.385,388.148 104.562,648.173L95.129,648.072Z" style="fill:rgb(68,124,60);fill-rule:nonzero;"/>
                </g>
            </g>
        </g>
    </g>
</svg>
