<?xml version="1.0" encoding="UTF-8" standalone="no"?>
<!DOCTYPE svg PUBLIC "-//W3C//DTD SVG 1.1//EN" "http://www.w3.org/Graphics/SVG/1.1/DTD/svg11.dtd">
<svg width="100%" height="100%" viewBox="0 0 915 1299" version="1.1" xmlns="http://www.w3.org/2000/svg" xmlns:xlink="http://www.w3.org/1999/xlink" xml:space="preserve" xmlns:serif="http://www.serif.com/" style="fill-rule:evenodd;clip-rule:evenodd;stroke-linejoin:round;stroke-miterlimit:2;">
    <g transform="matrix(1,0,0,1,-3343.08,-4194.88)">
        <g id="B011" transform="matrix(0.711582,0,0,1.11921,-1178.06,4265.05)">
            <rect x="6353.65" y="-62.7" width="1285.35" height="1159.95" style="fill:none;"/>
            <g transform="matrix(-5.8555,0,0,3.72287,7679.68,-1862.38)">
                <path d="M223.856,527.873C223.856,527.873 212.077,522.321 200.637,532.605C200.637,532.605 213.958,538.66 223.856,527.873Z" style="fill:rgb(147,183,73);fill-rule:nonzero;"/>
            </g>
            <g transform="matrix(-5.8555,0,0,3.72287,7679.68,-1862.38)">
                <path d="M194.891,554.101C194.891,554.101 213.633,548.752 224.564,561.457C224.564,561.457 205.186,567.448 194.891,554.101Z" style="fill:rgb(181,206,72);fill-rule:nonzero;"/>
            </g>
            <g transform="matrix(-5.8555,0,0,3.72287,7679.68,-1862.38)">
                <path d="M217.455,590.364C217.455,590.364 201.14,574.626 185.47,580.976C185.47,580.976 197.694,596.229 217.455,590.364Z" style="fill:rgb(147,183,73);fill-rule:nonzero;"/>
            </g>
            <g transform="matrix(-5.8555,0,0,3.72287,7679.68,-1862.38)">
                <path d="M178.432,535.548C178.432,535.548 193.268,538.911 194.891,554.101C194.891,554.101 181.717,551.493 178.432,535.548Z" style="fill:rgb(147,183,73);fill-rule:nonzero;"/>
            </g>
            <g transform="matrix(-5.8555,0,0,3.72287,7679.68,-1862.38)">
                <path d="M183.806,515.844C183.806,515.844 199.299,521.756 200.637,532.605C200.637,532.605 188.251,532.804 183.806,515.844Z" style="fill:rgb(181,206,72);fill-rule:nonzero;"/>
            </g>
            <g transform="matrix(-5.8555,0,0,3.72287,7679.68,-1862.38)">
                <path d="M185.276,581.015C185.276,581.015 184.286,564.543 169.852,563.863C171.483,572.414 179.07,580.037 185.276,581.015Z" style="fill:rgb(181,206,72);fill-rule:nonzero;"/>
            </g>
            <g transform="matrix(-5.8555,0,0,3.72287,7679.68,-1862.38)">
                <path d="M175.134,604.156C175.134,604.156 173.996,585.514 160.434,580.867C160.434,580.867 159.89,597.477 175.134,604.156Z" style="fill:rgb(147,183,73);fill-rule:nonzero;"/>
            </g>
            <g transform="matrix(-5.8555,0,0,3.72287,7679.68,-1862.38)">
                <path d="M208.704,612.472C208.704,612.472 191.628,598.393 176.467,604.489C176.467,604.489 186.146,621.035 208.704,612.472Z" style="fill:rgb(181,206,72);fill-rule:nonzero;"/>
            </g>
            <g transform="matrix(-5.8555,0,0,3.72287,7679.68,-1862.38)">
                <path d="M144.966,599.853C144.966,599.853 161.736,606.392 163.286,630.907C163.286,630.907 147.408,624.869 144.966,599.853Z" style="fill:rgb(181,206,72);fill-rule:nonzero;"/>
            </g>
            <g transform="matrix(-5.8555,0,0,3.72287,7679.68,-1862.38)">
                <path d="M194.623,638.357C194.623,638.357 180.613,623.371 163.286,630.241C163.286,630.241 171.827,648.967 194.623,638.357Z" style="fill:rgb(147,183,73);fill-rule:nonzero;"/>
            </g>
            <g transform="matrix(-5.8555,0,0,3.72287,7679.68,-1862.38)">
                <path d="M127.485,625.398C127.485,625.398 145.293,634.619 144.547,660.297C144.547,660.297 124.437,650.322 127.485,625.398Z" style="fill:rgb(147,183,73);fill-rule:nonzero;"/>
            </g>
            <g transform="matrix(-5.8555,0,0,3.72287,7679.68,-1862.38)">
                <path d="M181.387,669.058C181.387,669.058 162.908,654.095 146.214,660.963C146.214,660.963 159.846,675.825 181.387,669.058Z" style="fill:rgb(181,206,72);fill-rule:nonzero;"/>
            </g>
            <g transform="matrix(-5.8555,0,0,3.72287,7679.68,-1862.38)">
                <path d="M103.962,634.602C103.962,634.602 125.796,654.911 129.528,681.844C129.528,681.844 110.572,672.243 103.962,634.602Z" style="fill:rgb(181,206,72);fill-rule:nonzero;"/>
            </g>
            <g transform="matrix(-5.8555,0,0,3.72287,7679.68,-1862.38)">
                <path d="M179.48,700.311C179.48,700.311 153.418,677.987 131.861,682.844C131.861,682.844 143.974,700.391 179.48,700.311Z" style="fill:rgb(147,183,73);fill-rule:nonzero;"/>
            </g>
            <g transform="matrix(-5.8555,0,0,3.72287,7679.68,-1862.38)">
                <path d="M72.575,648.827C72.575,648.827 105.029,671.748 107.783,706.22C107.783,706.22 86.879,691.531 72.575,648.827Z" style="fill:rgb(147,183,73);fill-rule:nonzero;"/>
            </g>
            <g transform="matrix(-5.8555,0,0,3.72287,7679.68,-1862.38)">
                <path d="M45.585,663.164C45.585,663.164 82.218,702.541 83.413,732.679C83.413,732.679 51.507,714.598 45.585,663.164Z" style="fill:rgb(181,206,72);fill-rule:nonzero;"/>
            </g>
            <g transform="matrix(-5.8555,0,0,3.72287,7679.68,-1862.38)">
                <path d="M10.59,685.083C10.59,685.083 50.316,707.198 61.577,754.643C61.577,754.643 36.606,743.297 10.59,685.083Z" style="fill:rgb(147,183,73);fill-rule:nonzero;"/>
            </g>
            <g transform="matrix(-5.8555,0,0,3.72287,7679.68,-1862.38)">
                <path d="M167.587,732.771C167.587,732.771 137.529,705.105 111.117,709.22C111.117,709.22 122.208,727.931 167.587,732.771Z" style="fill:rgb(181,206,72);fill-rule:nonzero;"/>
            </g>
            <g transform="matrix(-5.8555,0,0,3.72287,7679.68,-1862.38)">
                <path d="M155.54,762.029C155.54,762.029 114.458,725.869 88.08,737.012C88.08,737.012 120.92,760.701 155.54,762.029Z" style="fill:rgb(147,183,73);fill-rule:nonzero;"/>
            </g>
            <g transform="matrix(-5.8555,0,0,3.72287,7679.68,-1862.38)">
                <path d="M65.551,758.613C65.551,758.613 105.687,763.231 127.967,793.88C127.967,793.88 84.364,786.222 65.551,758.613Z" style="fill:rgb(181,206,72);fill-rule:nonzero;"/>
            </g>
            <g transform="matrix(-5.8555,0,0,3.72287,7679.68,-1862.38)">
                <path d="M203.831,510.16C203.831,510.16 188.84,654.31 41.501,767.754L49.22,777.43C49.22,777.43 186.686,661.543 203.831,510.16Z" style="fill:rgb(83,120,54);fill-rule:nonzero;"/>
            </g>
            <g transform="matrix(-5.8555,0,0,3.72287,7679.68,-1862.38)">
                <path d="M202.626,520.125C202.626,520.125 214.316,510.351 200.672,492.294C200.672,492.294 187.716,504.631 202.626,520.125Z" style="fill:rgb(181,206,72);fill-rule:nonzero;"/>
            </g>
        </g>
    </g>
</svg>
