<?xml version="1.0" encoding="UTF-8" standalone="no"?>
<!DOCTYPE svg PUBLIC "-//W3C//DTD SVG 1.1//EN" "http://www.w3.org/Graphics/SVG/1.1/DTD/svg11.dtd">
<svg width="100%" height="100%" viewBox="0 0 785 1020" version="1.1" xmlns="http://www.w3.org/2000/svg" xmlns:xlink="http://www.w3.org/1999/xlink" xml:space="preserve" xmlns:serif="http://www.serif.com/" style="fill-rule:evenodd;clip-rule:evenodd;stroke-miterlimit:2;">
    <g transform="matrix(1,0,0,1,-5088.39,-5136.18)">
        <g id="B012" transform="matrix(0.610486,0,0,0.878686,1209.57,5191.27)">
            <rect x="6353.65" y="-62.7" width="1285.35" height="1159.95" style="fill:none;"/>
            <g transform="matrix(-1.63804,0,0,1.46872,18365.3,-92.3971)">
                <g transform="matrix(4.16667,0,0,3.22862,5553.51,-800.642)">
                    <path d="M369.988,258.607C379.115,265.871 376.753,280.523 373.812,290.16C370.661,300.502 366.266,309.44 361.066,318.819C356.562,326.938 352.298,335.48 350.076,344.541C349.129,348.395 348.431,352.978 350.02,356.788C349.745,356.129 356.047,348.627 356.497,347.965C361.386,340.781 365.82,333.308 369.037,325.214C372.101,317.506 374.532,309.273 377.011,301.334C379.486,293.413 381.441,285.021 381.346,276.677C381.258,268.762 379.207,259.433 369.988,258.607Z" style="fill:rgb(84,121,128);fill-rule:nonzero;"/>
                </g>
                <g transform="matrix(4.16667,0,0,3.22862,5553.51,-800.642)">
                    <path d="M322.085,297.009C322.085,297.009 327.672,311.535 327.672,328.854C327.672,328.854 329.348,377.46 339.963,383.606C339.963,383.606 344.991,348.408 334.935,325.502C334.935,325.502 329.907,302.596 322.085,297.009Z" style="fill:rgb(104,156,155);fill-rule:nonzero;"/>
                </g>
                <g transform="matrix(4.16667,0,0,3.22862,5553.51,-800.642)">
                    <path d="M425.47,346.165C422.439,345.588 419.17,345.85 416.111,345.955C407.887,346.237 399.896,347.544 392.096,350.224C376.855,355.462 363.053,363.106 350.744,373.541C348.875,375.125 347.047,376.751 345.257,378.418C343.948,379.638 341.604,383.075 339.963,383.606C344.769,382.056 349.504,380.258 354.206,378.416C362.184,375.299 371.176,371.812 377.945,366.478C384.771,361.103 392.471,357.462 400.485,354.221C408.594,350.939 416.94,348.225 425.47,346.165Z" style="fill:rgb(71,143,140);fill-rule:nonzero;"/>
                </g>
                <g transform="matrix(4.16667,0,0,3.22862,5553.51,-800.642)">
                    <path d="M275.155,329.971C275.155,329.971 301.414,325.502 315.939,355.112C315.939,355.112 332.142,379.136 337.17,394.221C326.441,383.492 316.673,371.729 307.93,359.346C304.435,354.388 301.423,348.264 297.337,343.808C294.094,340.277 289.515,338.618 285.351,336.466C282.064,334.769 277.525,332.935 275.155,329.971Z" style="fill:rgb(104,156,155);fill-rule:nonzero;"/>
                </g>
                <g transform="matrix(4.16667,0,0,3.22862,5553.51,-800.642)">
                    <path d="M425.962,402.527C423.033,392.794 416.704,384.994 407.01,381.425C396.033,377.381 386.247,379.114 375.143,381.639C362.071,384.611 349.713,393.225 340.456,402.653C338.867,404.273 337.331,405.953 335.869,407.694C334.555,409.255 333.211,412.055 331.583,413.216C341.247,406.337 351.586,399.947 362.48,395.22C367.797,392.911 373.532,391.248 378.971,389.201C390.725,384.775 402.641,389.485 413.4,394.661C417.909,396.835 421.763,399.869 425.962,402.527Z" style="fill:rgb(84,121,128);fill-rule:nonzero;"/>
                </g>
                <g transform="matrix(4.16667,0,0,3.22862,5553.51,-800.642)">
                    <path d="M408.494,290.675C408.494,290.675 404.024,316.375 357.094,346.544C357.094,346.544 347.597,354.925 348.155,361.07C348.155,361.07 365.475,357.16 388.94,331.46C388.94,331.46 411.287,307.995 408.494,290.675Z" style="fill:rgb(104,156,155);fill-rule:nonzero;"/>
                </g>
                <g transform="matrix(4.16667,0,0,3.22862,5553.51,-800.642)">
                    <path d="M243.589,374.317C244.152,374.038 244.885,372.781 245.357,372.323C246.954,370.769 248.762,369.424 250.612,368.237C256.665,364.359 263.68,362.301 270.751,363.51C280.358,365.149 287.167,370.049 294.181,376.589C302.557,384.409 309.903,393.675 316.411,403.245C318.82,406.789 321.103,410.427 323.246,414.155C325.455,417.995 327.17,423.137 329.907,426.533C325.263,420.772 320.479,415.103 315.586,409.58C306.739,399.594 297.734,389.173 287.486,380.771C278.163,373.13 268.145,367.224 256.081,369.738C251.852,370.625 247.483,372.383 243.589,374.317Z" style="fill:rgb(84,121,128);fill-rule:nonzero;"/>
                </g>
                <g transform="matrix(4.16667,0,0,3.22862,5553.51,-800.642)">
                    <path d="M262.305,405.395C263.144,405.324 264.348,404.44 265.142,404.15C267.574,403.256 270.158,402.702 272.754,402.659C282.863,402.501 290.113,411.492 297.079,417.467C304.238,423.604 311.169,430.78 316.542,438.554C318.868,441.914 321.291,446.161 321.526,450.369C321.509,450.093 319.318,448.787 319.096,448.616C316.882,446.907 314.713,445.128 312.565,443.337C305.835,437.724 300.144,431.43 294.461,424.789C290.345,419.977 285.893,415.342 280.603,411.807C275.675,408.513 268.433,404.883 262.305,405.395Z" style="fill:rgb(72,142,151);fill-rule:nonzero;"/>
                </g>
                <g transform="matrix(4.16667,0,0,3.22862,5553.51,-800.642)">
                    <path d="M327.393,425.786C333.175,422.893 339.134,420.477 345.2,418.24C350.879,416.149 356.488,413.803 362.376,412.356C375.732,409.069 392.563,404.564 402.947,416.716C408.162,422.816 411.157,429.734 411.476,437.798C411.476,437.798 398.626,418.803 382.144,418.803C382.144,418.803 357.282,419.083 327.393,425.786Z" style="fill:rgb(104,156,155);fill-rule:nonzero;"/>
                </g>
                <g transform="matrix(4.16667,0,0,3.22862,5553.51,-800.642)">
                    <path d="M397.246,448.979C393.654,444.633 387.189,440.74 382.223,438.181C369.364,431.548 353.202,432.484 340.233,438.344C333.556,441.365 327.157,445.694 321.526,450.369C321.94,450.024 324.172,450.042 324.712,449.937C327.667,449.382 330.618,448.791 333.556,448.169C337.68,447.3 341.722,446.196 345.646,444.643C351.634,442.268 356.981,439.139 363.611,439.195C371.477,439.265 378.941,442.469 386.338,444.777C390.066,445.943 393.68,447.349 397.246,448.979Z" style="fill:rgb(104,156,155);fill-rule:nonzero;"/>
                </g>
                <g transform="matrix(4.16667,0,0,3.22862,5553.51,-800.642)">
                    <path d="M350.578,354.554C350.578,354.554 319.85,421.038 312.587,497.019L316.498,497.019C316.498,497.019 325.438,424.39 350.578,354.554Z" style="fill:rgb(70,138,135);fill-rule:nonzero;"/>
                </g>
                <g transform="matrix(4.16667,0,0,3.22862,5553.51,-800.642)">
                    <path d="M350.578,354.554C350.578,354.554 319.85,421.038 312.587,497.019L316.498,497.019C316.498,497.019 325.438,424.39 350.578,354.554Z" style="fill:none;stroke:rgb(84,121,128);stroke-width:1px;"/>
                </g>
            </g>
        </g>
    </g>
</svg>
