<?xml version="1.0" encoding="UTF-8" standalone="no"?>
<!DOCTYPE svg PUBLIC "-//W3C//DTD SVG 1.1//EN" "http://www.w3.org/Graphics/SVG/1.1/DTD/svg11.dtd">
<svg width="100%" height="100%" viewBox="0 0 609 1497" version="1.1" xmlns="http://www.w3.org/2000/svg" xmlns:xlink="http://www.w3.org/1999/xlink" xml:space="preserve" xmlns:serif="http://www.serif.com/" style="fill-rule:evenodd;clip-rule:evenodd;stroke-linejoin:round;stroke-miterlimit:2;">
    <g transform="matrix(1,0,0,1,-3634.32,-2081.66)">
        <g id="B013" transform="matrix(0.473711,0,0,1.29054,624.528,2162.58)">
            <rect x="6353.65" y="-62.7" width="1285.35" height="1159.95" style="fill:none;"/>
            <g transform="matrix(-8.7958,0,0,3.22862,13779.7,-1693.9)">
                <path d="M821.762,550.275C821.762,550.275 800.85,568.261 786.659,599.377C786.659,599.377 818.853,575.373 821.762,550.275Z" style="fill:rgb(100,140,96);fill-rule:nonzero;"/>
            </g>
            <g transform="matrix(-8.7958,0,0,3.22862,13779.7,-1693.9)">
                <path d="M831.823,567.487C831.823,567.487 799.54,592.374 784.833,606.072C784.833,606.072 824.59,591.273 831.823,567.487Z" style="fill:rgb(100,140,96);fill-rule:nonzero;"/>
            </g>
            <g transform="matrix(-8.7958,0,0,3.22862,13779.7,-1693.9)">
                <path d="M837.718,584.544C837.718,584.544 795.059,601.732 784.012,614.454C784.012,614.454 826.54,598.588 837.718,584.544Z" style="fill:rgb(100,140,96);fill-rule:nonzero;"/>
            </g>
            <g transform="matrix(-8.7958,0,0,3.22862,13779.7,-1693.9)">
                <path d="M837.258,598.305C837.258,598.305 794.896,607.952 783.935,619.791C783.935,619.791 823.875,612.133 837.258,598.305Z" style="fill:rgb(100,140,96);fill-rule:nonzero;"/>
            </g>
            <g transform="matrix(-8.7958,0,0,3.22862,13779.7,-1693.9)">
                <path d="M832.075,610.266C832.075,610.266 794.078,620.785 782.105,633.861C782.105,633.861 825.302,620.288 832.075,610.266Z" style="fill:rgb(100,140,96);fill-rule:nonzero;"/>
            </g>
            <g transform="matrix(-8.7958,0,0,3.22862,13779.7,-1693.9)">
                <path d="M799.716,525.531C799.716,525.531 785.552,570.011 787.313,592.897C787.313,592.897 803.241,548.589 799.716,525.531Z" style="fill:rgb(100,140,96);fill-rule:nonzero;"/>
            </g>
            <g transform="matrix(-8.7958,0,0,3.22862,13779.7,-1693.9)">
                <path d="M787.502,519.939C787.502,519.939 779.245,563.217 787.492,588.075C787.492,588.075 792.737,561.87 787.502,519.939Z" style="fill:rgb(100,140,96);fill-rule:nonzero;"/>
            </g>
            <g transform="matrix(-8.7958,0,0,3.22862,13779.7,-1693.9)">
                <path d="M774.459,525.782C774.459,525.782 777.944,576.448 789.3,587.808C789.3,587.808 786.09,543.403 774.459,525.782Z" style="fill:rgb(100,140,96);fill-rule:nonzero;"/>
            </g>
            <g transform="matrix(-8.7958,0,0,3.22862,13779.7,-1693.9)">
                <path d="M759.962,532.821C759.962,532.821 769.625,584.094 786.324,599.984C786.324,599.984 768.41,546.565 759.962,532.821Z" style="fill:rgb(100,140,96);fill-rule:nonzero;"/>
            </g>
            <g transform="matrix(-8.7958,0,0,3.22862,13779.7,-1693.9)">
                <path d="M747.283,544.044C747.283,544.044 769.57,580.078 784.833,606.072C784.833,606.072 759.619,586.229 747.283,544.044Z" style="fill:rgb(100,140,96);fill-rule:nonzero;"/>
            </g>
            <g transform="matrix(-8.7958,0,0,3.22862,13779.7,-1693.9)">
                <path d="M741.494,562.182C741.494,562.182 776.445,600.797 783.935,619.791C783.935,619.791 749.699,587.481 741.494,562.182Z" style="fill:rgb(100,140,96);fill-rule:nonzero;"/>
            </g>
            <g transform="matrix(-8.7958,0,0,3.22862,13779.7,-1693.9)">
                <path d="M727.147,603.972C727.147,603.972 766.327,613.164 783.207,631.743C783.207,631.743 732.984,612.562 727.147,603.972Z" style="fill:rgb(100,140,96);fill-rule:nonzero;"/>
            </g>
            <g transform="matrix(-8.7958,0,0,3.22862,13779.7,-1693.9)">
                <path d="M781.501,640.037C781.501,640.037 821.419,619.019 837.783,620.178C837.783,620.178 800.642,640.135 781.501,640.037Z" style="fill:rgb(100,140,96);fill-rule:nonzero;"/>
            </g>
            <g transform="matrix(-8.7958,0,0,3.22862,13779.7,-1693.9)">
                <path d="M779.761,653.227C779.761,653.227 818.357,632.075 841.379,633.446C841.379,633.446 790.701,655.192 779.761,653.227Z" style="fill:rgb(100,140,96);fill-rule:nonzero;"/>
            </g>
            <g transform="matrix(-8.7958,0,0,3.22862,13779.7,-1693.9)">
                <path d="M777.313,664.565C777.313,664.565 803.962,647.141 840.305,648.929C840.305,648.929 790.147,665.379 777.313,664.565Z" style="fill:rgb(100,140,96);fill-rule:nonzero;"/>
            </g>
            <g transform="matrix(-8.7958,0,0,3.22862,13779.7,-1693.9)">
                <path d="M777.164,679.691C777.164,679.691 807.817,657.761 838.858,654.575C838.858,654.575 796.908,673.615 777.164,679.691Z" style="fill:rgb(100,140,96);fill-rule:nonzero;"/>
            </g>
            <g transform="matrix(-8.7958,0,0,3.22862,13779.7,-1693.9)">
                <path d="M774.584,692.353C774.584,692.353 813.119,662.735 839.005,662.16C839.005,662.16 791.908,688.265 774.584,692.353Z" style="fill:rgb(100,140,96);fill-rule:nonzero;"/>
            </g>
            <g transform="matrix(-8.7958,0,0,3.22862,13779.7,-1693.9)">
                <path d="M773.111,707.351C773.111,707.351 803.403,680.041 836.469,674.381C836.469,674.381 790.436,703.263 773.111,707.351Z" style="fill:rgb(100,140,96);fill-rule:nonzero;"/>
            </g>
            <g transform="matrix(-8.7958,0,0,3.22862,13779.7,-1693.9)">
                <path d="M726.022,615.44C726.022,615.44 760.01,632.138 777.313,664.565C777.313,664.565 733.949,634.477 726.022,615.44Z" style="fill:rgb(100,140,96);fill-rule:nonzero;"/>
            </g>
            <g transform="matrix(-8.7958,0,0,3.22862,13779.7,-1693.9)">
                <path d="M722.793,634.718C722.793,634.718 756.961,654.106 775.347,675.506C775.347,675.506 729.52,647.848 722.793,634.718Z" style="fill:rgb(100,140,96);fill-rule:nonzero;"/>
            </g>
            <g transform="matrix(-8.7958,0,0,3.22862,13779.7,-1693.9)">
                <path d="M718.63,649.898C718.63,649.898 753.051,662.183 776.064,681.81C776.064,681.81 732.371,664.16 718.63,649.898Z" style="fill:rgb(100,140,96);fill-rule:nonzero;"/>
            </g>
            <g transform="matrix(-8.7958,0,0,3.22862,13779.7,-1693.9)">
                <path d="M714.779,666.441C714.779,666.441 757.928,676.022 774.584,692.353C774.584,692.353 725.562,679.078 714.779,666.441Z" style="fill:rgb(100,140,96);fill-rule:nonzero;"/>
            </g>
            <g transform="matrix(-8.7958,0,0,3.22862,13779.7,-1693.9)">
                <path d="M713.118,674.294C713.118,674.294 751.872,692.35 771.717,717.012C771.717,717.012 723.824,692.268 713.118,674.294Z" style="fill:rgb(100,140,96);fill-rule:nonzero;"/>
            </g>
            <g transform="matrix(-8.7958,0,0,3.22862,13779.7,-1693.9)">
                <path d="M771.516,728.125C771.516,728.125 805.035,704.249 835.867,707.724C835.867,707.724 785.718,728.627 771.516,728.125Z" style="fill:rgb(100,140,96);fill-rule:nonzero;"/>
            </g>
            <g transform="matrix(-8.7958,0,0,3.22862,13779.7,-1693.9)">
                <path d="M768.158,748.727C768.158,748.727 809.911,718.091 834.604,716.062C834.604,716.062 788.837,746.749 768.158,748.727Z" style="fill:rgb(100,140,96);fill-rule:nonzero;"/>
            </g>
            <g transform="matrix(-8.7958,0,0,3.22862,13779.7,-1693.9)">
                <path d="M704.395,704.167C704.395,704.167 742.925,719.975 767.551,754.902C767.551,754.902 711.338,715.09 704.395,704.167Z" style="fill:rgb(100,140,96);fill-rule:nonzero;"/>
            </g>
            <g transform="matrix(-8.7958,0,0,3.22862,13779.7,-1693.9)">
                <path d="M705.759,726.569C705.759,726.569 747.02,741.753 766.988,760.636C766.988,760.636 718.132,741.144 705.759,726.569Z" style="fill:rgb(100,140,96);fill-rule:nonzero;"/>
            </g>
            <g transform="matrix(-8.7958,0,0,3.22862,13779.7,-1693.9)">
                <path d="M705.298,740.327C705.298,740.327 750.485,756.344 766.883,775.322C766.883,775.322 713.168,750.897 705.298,740.327Z" style="fill:rgb(100,140,96);fill-rule:nonzero;"/>
            </g>
            <g transform="matrix(-8.7958,0,0,3.22862,13779.7,-1693.9)">
                <path d="M703.108,749.02C703.108,749.02 739.744,765.978 764.961,785.822C764.961,785.822 716.722,764.608 703.108,749.02Z" style="fill:rgb(100,140,96);fill-rule:nonzero;"/>
            </g>
            <g transform="matrix(-8.7958,0,0,3.22862,13779.7,-1693.9)">
                <path d="M832.974,741.731C832.974,741.731 784.876,750.814 767.351,766.016C767.351,766.016 831.269,750.023 832.974,741.731Z" style="fill:rgb(100,140,96);fill-rule:nonzero;"/>
            </g>
            <g transform="matrix(-8.7958,0,0,3.22862,13779.7,-1693.9)">
                <path d="M827.662,755.014C827.662,755.014 777.365,768.334 766.449,779.733C766.449,779.733 817.714,765.616 827.662,755.014Z" style="fill:rgb(100,140,96);fill-rule:nonzero;"/>
            </g>
            <g transform="matrix(-8.7958,0,0,3.22862,13779.7,-1693.9)">
                <path d="M826.89,767.408C826.89,767.408 777.468,776.359 764.839,791.599C764.839,791.599 814.479,780.441 826.89,767.408Z" style="fill:rgb(100,140,96);fill-rule:nonzero;"/>
            </g>
            <g transform="matrix(-8.7958,0,0,3.22862,13779.7,-1693.9)">
                <path d="M710.149,690.927C710.149,690.927 747.745,702.632 770.246,732.008C770.246,732.008 713.824,698.857 710.149,690.927Z" style="fill:rgb(100,140,96);fill-rule:nonzero;"/>
            </g>
            <g transform="matrix(-8.7958,0,0,3.22862,13779.7,-1693.9)">
                <path d="M707.811,764.623C707.811,764.623 740.728,774.088 763.047,800.775C763.047,800.775 718.55,777.701 707.811,764.623Z" style="fill:rgb(100,140,96);fill-rule:nonzero;"/>
            </g>
            <g transform="matrix(-8.7958,0,0,3.22862,13779.7,-1693.9)">
                <path d="M762.614,805.187C762.614,805.187 792.783,783.654 820.877,783.296C820.877,783.296 783.56,805.019 762.614,805.187Z" style="fill:rgb(100,140,96);fill-rule:nonzero;"/>
            </g>
            <g transform="matrix(-8.7958,0,0,3.22862,13779.7,-1693.9)">
                <path d="M760.7,820.141C760.7,820.141 789.591,798.037 813.453,799.936C813.453,799.936 777.149,820.42 760.7,820.141Z" style="fill:rgb(100,140,96);fill-rule:nonzero;"/>
            </g>
            <g transform="matrix(-8.7958,0,0,3.22862,13779.7,-1693.9)">
                <path d="M700.865,776.412C700.865,776.412 740.182,788.731 761.438,812.643C761.438,812.643 719.031,800.019 700.865,776.412Z" style="fill:rgb(100,140,96);fill-rule:nonzero;"/>
            </g>
            <g transform="matrix(-8.7958,0,0,3.22862,13779.7,-1693.9)">
                <path d="M788.645,578.613L752.706,863L760.114,862.392L788.645,578.613Z" style="fill:rgb(168,193,162);fill-rule:nonzero;"/>
            </g>
        </g>
    </g>
</svg>
