<?xml version="1.0" encoding="UTF-8" standalone="no"?>
<!DOCTYPE svg PUBLIC "-//W3C//DTD SVG 1.1//EN" "http://www.w3.org/Graphics/SVG/1.1/DTD/svg11.dtd">
<svg width="100%" height="100%" viewBox="0 0 1372 1215" version="1.1" xmlns="http://www.w3.org/2000/svg" xmlns:xlink="http://www.w3.org/1999/xlink" xml:space="preserve" xmlns:serif="http://www.serif.com/" style="fill-rule:evenodd;clip-rule:evenodd;stroke-linejoin:round;stroke-miterlimit:2;">
    <g transform="matrix(1,0,0,1,-880.132,-5111.86)">
        <g id="B014" transform="matrix(1.06678,0,0,1.04672,-5897.83,5177.49)">
            <rect x="6353.65" y="-62.7" width="1285.35" height="1159.95" style="fill:none;"/>
            <g transform="matrix(1.21462,0,0,1.23293,-1367.19,-222.725)">
                <g transform="matrix(3.21569,0,0,3.22862,5683.2,-1672.84)">
                    <path d="M259.027,603.38C259.027,603.38 466.565,617.216 510.05,842.543L503.131,846.497C503.131,846.497 483.367,645.877 259.027,603.38Z" style="fill:rgb(85,128,58);fill-rule:nonzero;"/>
                </g>
                <g transform="matrix(3.21569,0,0,3.22862,5683.2,-1672.84)">
                    <path d="M536.237,677.501C536.237,677.501 522.896,704.68 497.696,716.044C497.696,716.044 472.99,721.972 472,741.739C472,741.739 476.45,728.893 505.602,721.48C505.602,721.48 534.26,714.562 536.237,677.501Z" style="fill:rgb(94,131,59);fill-rule:nonzero;"/>
                </g>
                <g transform="matrix(3.21569,0,0,3.22862,5683.2,-1672.84)">
                    <path d="M518.945,652.793C518.945,652.793 508.566,685.9 482.87,704.184C482.87,704.184 466.072,719.998 466.072,732.353C466.072,732.353 477.437,716.044 496.708,705.667C496.708,705.667 524.874,686.892 518.945,652.793Z" style="fill:rgb(94,131,59);fill-rule:nonzero;"/>
                </g>
                <g transform="matrix(3.21569,0,0,3.22862,5683.2,-1672.84)">
                    <path d="M500.203,635.283C499.719,639.962 499.13,644.56 498.222,649.197C496.3,659.035 493.123,669.472 488.168,678.221C481.176,690.566 468.886,698.949 462.1,711.554C460.631,714.283 459.153,717.312 459.153,720.492C459.153,718.739 463.442,714.782 464.432,713.597C468.899,708.227 473.956,703.471 479.497,699.225C486.31,694.006 492.998,689.826 497.617,682.373C502.678,674.201 504.962,665.427 504.822,655.798C504.771,652.336 504.348,648.897 503.573,645.523C503.151,643.681 502.628,641.866 502.06,640.061C501.542,638.428 500.592,636.964 500.203,635.283Z" style="fill:rgb(111,165,66);fill-rule:nonzero;"/>
                </g>
                <g transform="matrix(3.21569,0,0,3.22862,5683.2,-1672.84)">
                    <path d="M481.973,623.299C482.175,640.186 480.441,657.361 473.521,672.95C471.087,678.434 467.915,684.209 464.096,688.866C458.842,695.274 453.279,703.394 453.223,711.997C453.635,707.98 458.272,703.293 460.639,700.205C463.688,696.229 467.813,693.046 471.32,689.41C482.095,678.242 487.372,660.602 487.069,645.381C486.991,641.528 486.434,637.707 485.557,633.955C484.752,630.519 483.583,626.31 481.973,623.299Z" style="fill:rgb(111,165,66);fill-rule:nonzero;"/>
                </g>
                <g transform="matrix(3.21569,0,0,3.22862,5683.2,-1672.84)">
                    <path d="M464.69,607.773C464.314,608.993 463.943,610.767 463.948,612.034C463.97,616.924 463.978,621.811 463.827,626.701C463.407,640.462 462.504,654.537 459.237,667.951C456.123,680.754 447.432,693.032 448.282,706.655C449.436,703.092 450.865,699.595 452.369,696.168C453.811,692.889 455.4,689.672 457.149,686.544C461.029,679.606 465.25,672.823 467.858,665.269C470.555,657.455 472.102,649.105 472.472,640.853C472.684,636.125 472.493,631.381 471.784,626.701C470.829,620.386 469.371,612.497 464.69,607.773Z" style="fill:rgb(94,131,59);fill-rule:nonzero;"/>
                </g>
                <g transform="matrix(3.21569,0,0,3.22862,5683.2,-1672.84)">
                    <path d="M442.354,597.943C442.354,597.943 452.731,657.241 440.377,698.255C440.377,698.255 470.024,639.452 442.354,597.943Z" style="fill:rgb(83,120,54);fill-rule:nonzero;"/>
                </g>
                <g transform="matrix(3.21569,0,0,3.22862,5683.2,-1672.84)">
                    <path d="M425.553,591.52C425.553,591.52 420.61,639.946 432.469,689.361C432.469,689.361 440.377,638.958 425.553,591.52Z" style="fill:rgb(111,165,66);fill-rule:nonzero;"/>
                </g>
                <g transform="matrix(3.21569,0,0,3.22862,5683.2,-1672.84)">
                    <path d="M397.88,574.226C397.88,574.226 421.601,590.039 418.14,642.911C418.14,642.911 418.14,668.111 419.623,676.513C419.623,676.513 411.715,654.772 413.198,638.466C413.198,638.466 412.705,598.932 397.88,574.226Z" style="fill:rgb(94,131,59);fill-rule:nonzero;"/>
                </g>
                <g transform="matrix(3.21569,0,0,3.22862,5683.2,-1672.84)">
                    <path d="M352.902,558.88C355.671,563.161 358.185,567.608 360.5,572.15C365.136,581.241 369.501,590.881 371.58,600.918C372.937,607.473 373.585,614.255 372.309,620.877C371.58,624.651 370.473,628.333 369.535,632.06C368.854,634.766 367.786,638.103 368.715,640.849C365.137,630.284 368.407,619.565 367.125,608.685C365.801,597.424 363.319,586.533 359.795,575.762C357.898,569.967 355.524,564.412 352.902,558.88Z" style="fill:rgb(94,131,59);fill-rule:nonzero;"/>
                </g>
                <g transform="matrix(3.21569,0,0,3.22862,5683.2,-1672.84)">
                    <path d="M335.619,562.615C343.734,571.714 350.901,581.92 356.144,592.928C360.574,602.23 359.623,611.66 358.944,621.619C358.657,625.842 358.295,630.055 357.854,634.264C358.024,623.276 356.778,611.929 353.438,601.446C351.821,596.37 348.158,592.183 345.507,587.619C342.716,582.815 340.188,577.807 338.244,572.596C337.042,569.375 336.029,566.037 335.619,562.615Z" style="fill:rgb(111,165,66);fill-rule:nonzero;"/>
                </g>
                <g transform="matrix(3.21569,0,0,3.22862,5683.2,-1672.84)">
                    <path d="M317.335,564.837C321.247,567.628 324.832,570.938 328.163,574.385C333.555,579.967 338.45,586.101 341.797,593.146C345.496,600.93 345.735,608.729 346.41,617.134C346.689,620.604 346.65,627.019 349.456,629.569C348.521,628.721 347.254,628.286 346.315,627.322C342.698,623.611 341.08,618.018 339.764,613.164C337.952,606.481 337.24,599.917 334.582,593.467C331.99,587.179 328.861,581.056 325.206,575.318C323.123,572.049 320.546,567.127 317.335,564.837Z" style="fill:rgb(94,131,59);fill-rule:nonzero;"/>
                </g>
                <g transform="matrix(3.21569,0,0,3.22862,5683.2,-1672.84)">
                    <path d="M295.347,564.096C299.212,565.842 302.974,568.103 306.395,570.589C318.229,579.187 328.2,590.456 330.15,605.45C330.884,611.095 330.387,616.922 332.161,622.404C331.823,621.361 329.668,619.684 329.049,618.591C327.791,616.371 326.908,613.94 326.131,611.516C324.131,605.281 322.815,599.738 319.564,593.982C315.825,587.364 311.322,581.067 306.369,575.309C304.661,573.323 302.912,571.366 301.083,569.49C299.537,567.907 297.375,565.013 295.347,564.096Z" style="fill:rgb(94,131,59);fill-rule:nonzero;"/>
                </g>
                <g transform="matrix(3.21569,0,0,3.22862,5683.2,-1672.84)">
                    <path d="M272.862,568.915C272.862,568.915 316.223,576.697 314.74,601.899C314.74,601.899 313.258,611.901 314,615.238C313.297,612.078 310.738,609.869 309.271,607.092C307.541,603.819 307.555,599.919 306.392,596.438C305.716,594.416 304.487,592.859 303.326,591.095C299.487,585.265 294.239,580.485 288.41,576.661C283.572,573.485 278.277,570.944 272.862,568.915Z" style="fill:rgb(83,120,54);fill-rule:nonzero;"/>
                </g>
                <g transform="matrix(3.21569,0,0,3.22862,5683.2,-1672.84)">
                    <path d="M257.667,570.398C260.367,571.816 263.117,573.171 265.896,574.428C278.155,579.978 291.743,584.316 299.969,595.713C301.885,598.368 303.414,601.919 303.622,605.234C303.622,605.234 303.993,611.164 304.734,613.016C303.934,611.015 301.199,608.862 299.925,607.1C298.329,604.889 296.728,602.622 295.382,600.253C293.607,597.126 291.298,594.287 288.544,591.975C283.941,588.105 277.606,585.889 272.505,582.59C267.259,579.196 261.463,575.459 257.667,570.398Z" style="fill:rgb(94,131,59);fill-rule:nonzero;"/>
                </g>
                <g transform="matrix(3.21569,0,0,3.22862,5683.2,-1672.84)">
                    <path d="M237.284,579.291C237.284,579.291 279.903,575.585 291.763,609.681C291.763,609.681 273.232,586.333 237.284,579.291Z" style="fill:rgb(111,165,66);fill-rule:nonzero;"/>
                </g>
                <g transform="matrix(3.21569,0,0,3.22862,5683.2,-1672.84)">
                    <path d="M227.278,585.962C227.278,585.962 262.114,582.626 282.868,607.086C282.868,607.086 252.479,588.926 227.278,585.962Z" style="fill:rgb(111,165,66);fill-rule:nonzero;"/>
                </g>
                <g transform="matrix(3.21569,0,0,3.22862,5683.2,-1672.84)">
                    <path d="M273.068,606.152C273.068,606.152 266.768,599.481 244.902,601.335C244.902,601.335 225.631,603.189 216.736,596.517C216.736,596.517 221.183,603.929 245.272,605.042C245.272,605.042 266.396,604.3 273.068,606.152Z" style="fill:rgb(83,120,54);fill-rule:nonzero;"/>
                </g>
                <g transform="matrix(3.21569,0,0,3.22862,5683.2,-1672.84)">
                    <path d="M388.861,571.879C388.862,571.88 408.875,604.121 402.203,638.218C402.203,638.218 399.238,656.006 402.944,663.047C402.015,661.282 400.676,659.775 399.796,657.954C396.781,651.726 396.382,644.504 396.557,637.7C396.777,629.182 398.396,620.982 397.822,612.427C397.253,603.929 396.129,595.408 394.084,587.134C392.861,582.191 391.578,576.255 388.861,571.879Z" style="fill:rgb(94,131,59);fill-rule:nonzero;"/>
                </g>
                <g transform="matrix(3.21569,0,0,3.22862,5683.2,-1672.84)">
                    <path d="M374.408,568.915C374.408,568.915 392.567,590.781 387.749,623.023C387.749,623.023 383.673,641.553 385.896,651.189C385.896,651.189 378.855,641.181 382.561,613.016C382.561,613.016 382.931,586.333 374.408,568.915Z" style="fill:rgb(94,131,59);fill-rule:nonzero;"/>
                </g>
            </g>
        </g>
    </g>
</svg>
