<?xml version="1.0" encoding="UTF-8" standalone="no"?>
<!DOCTYPE svg PUBLIC "-//W3C//DTD SVG 1.1//EN" "http://www.w3.org/Graphics/SVG/1.1/DTD/svg11.dtd">
<svg width="100%" height="100%" viewBox="0 0 1117 1051" version="1.1" xmlns="http://www.w3.org/2000/svg" xmlns:xlink="http://www.w3.org/1999/xlink" xml:space="preserve" xmlns:serif="http://www.serif.com/" style="fill-rule:evenodd;clip-rule:evenodd;stroke-linejoin:round;stroke-miterlimit:2;">
    <g transform="matrix(1,0,0,1,-1654.86,-2052.33)">
        <g id="B015" transform="matrix(0.717491,0,0,0.687413,577.243,785.165)">
            <rect x="1501.92" y="1843.38" width="1555.74" height="1528.31" style="fill:none;"/>
            <clipPath id="_clip1">
                <rect x="1501.92" y="1843.38" width="1555.74" height="1528.31"/>
            </clipPath>
            <g clip-path="url(#_clip1)">
                <g transform="matrix(5.80727,0,0,6.06137,-331.46,-1131.28)">
                    <g>
                        <path d="M529.997,601.125C529.997,601.125 537.322,562.409 528.211,552.253C528.211,552.253 520.721,538.547 510.721,533.533L509.199,543.403L504.436,530.805C504.436,530.805 494.438,518.398 485.454,519.13L486.094,529.191L479.996,516.911C479.996,516.911 463.617,502.852 456.382,503.52L457.086,515.326L450.417,502.123L439.149,499.174L438.167,505.395L434.103,497.208C434.103,497.208 413.571,490.834 391.258,494.739L391.703,506.959L382.371,494.394C382.371,494.394 346.7,489.513 321.029,511.829C321.029,511.829 478.316,526.11 529.997,601.125Z" style="fill:rgb(46,143,93);fill-rule:nonzero;"/>
                        <path d="M532.793,626.166C532.793,626.166 474.539,536.872 317.188,513.446C317.188,513.446 341.498,501.667 359.203,500.62L363.838,509.727L364.285,499.762C364.285,499.762 376.092,499.063 381.454,502.36L388.882,514.321L391.165,503.216L401.954,504.165L408.145,515.367L412.459,508.352C412.459,508.352 412.49,505.527 417.665,510.983L422.268,522.917L423.983,510.887C423.983,510.887 435.31,508.189 448.988,518.312L455.786,535.001L457.687,520.815C457.687,520.815 468.061,521.51 478.221,534.585L481.556,548.582L485.396,539.567C485.396,539.567 490.885,538.961 499.489,549.941L499.838,563.238L504.6,553.654C504.6,553.654 508.344,553.112 514.755,559.333L514.281,572.124L519.357,563.87C519.357,563.87 538.115,580.526 532.793,626.166Z" style="fill:rgb(157,224,173);fill-rule:nonzero;"/>
                        <path d="M585.019,734.505C585.019,734.505 568.378,661.706 533.111,620.106L530.922,622.736C530.922,622.736 569.142,675.258 579.689,735.774L585.019,734.505Z" style="fill:rgb(46,143,93);fill-rule:nonzero;"/>
                        <path d="M348.468,505.379C348.468,505.379 347.77,510.605 350.907,516.528C350.907,516.528 350.907,508.515 348.468,505.379Z" style="fill:rgb(48,142,100);fill-rule:nonzero;"/>
                        <path d="M356.83,502.243C356.83,502.243 354.391,510.256 358.572,518.966C358.572,518.966 359.268,507.469 356.83,502.243Z" style="fill:rgb(48,142,100);fill-rule:nonzero;"/>
                        <path d="M375.295,503.289C375.295,503.289 373.204,511.999 375.295,523.148C375.295,523.148 377.733,511.999 375.295,503.289Z" style="fill:rgb(48,142,100);fill-rule:nonzero;"/>
                        <path d="M380.521,506.076C380.521,506.076 378.431,512.696 379.127,522.45C379.127,522.45 382.611,510.605 380.521,506.076Z" style="fill:rgb(48,142,100);fill-rule:nonzero;"/>
                        <path d="M400.728,508.167C400.728,508.167 396.199,516.877 396.547,528.723C396.547,528.723 401.773,514.439 400.728,508.167Z" style="fill:rgb(48,142,100);fill-rule:nonzero;"/>
                        <path d="M431.039,515.831C431.039,515.831 424.766,523.497 422.677,539.871C422.677,539.871 431.735,520.709 431.039,515.831Z" style="fill:rgb(48,142,100);fill-rule:nonzero;"/>
                        <path d="M438.007,517.924C438.007,517.924 429.993,529.071 428.252,541.612C428.252,541.612 438.354,523.846 438.007,517.924Z" style="fill:rgb(48,142,100);fill-rule:nonzero;"/>
                        <path d="M442.884,523.148C442.884,523.148 436.961,532.207 434.522,544.051C434.522,544.051 444.626,528.723 442.884,523.148Z" style="fill:rgb(48,142,100);fill-rule:nonzero;"/>
                        <path d="M468.666,532.901C468.666,532.901 461,541.612 457.863,556.245C457.863,556.245 466.924,544.399 468.666,532.901Z" style="fill:rgb(48,142,100);fill-rule:nonzero;"/>
                        <path d="M470.755,543.702C470.755,543.702 465.182,551.02 462.743,559.382C462.743,559.382 469.012,553.109 470.755,543.702Z" style="fill:rgb(48,142,100);fill-rule:nonzero;"/>
                        <path d="M492.355,550.671C492.355,550.671 484.692,556.245 478.421,569.484C478.421,569.484 487.479,561.123 492.355,550.671Z" style="fill:rgb(48,142,100);fill-rule:nonzero;"/>
                        <path d="M495.492,556.942C495.492,556.942 488.525,564.258 485.041,573.317C485.041,573.317 495.492,561.123 495.492,556.942Z" style="fill:rgb(48,142,100);fill-rule:nonzero;"/>
                        <path d="M497.931,566.696C497.931,566.696 493.402,571.228 489.918,577.496C489.918,577.496 497.582,571.228 497.931,566.696Z" style="fill:rgb(48,142,100);fill-rule:nonzero;"/>
                        <path d="M519.879,574.364C519.879,574.364 511.171,578.193 504.899,587.95C504.899,587.95 517.44,580.284 519.879,574.364Z" style="fill:rgb(48,142,100);fill-rule:nonzero;"/>
                        <path d="M523.362,582.376C523.362,582.376 517.091,584.466 510.475,593.176C510.475,593.176 521.972,586.904 523.362,582.376Z" style="fill:rgb(48,142,100);fill-rule:nonzero;"/>
                    </g>
                </g>
            </g>
        </g>
    </g>
</svg>
