<?xml version="1.0" encoding="UTF-8" standalone="no"?>
<!DOCTYPE svg PUBLIC "-//W3C//DTD SVG 1.1//EN" "http://www.w3.org/Graphics/SVG/1.1/DTD/svg11.dtd">
<svg width="100%" height="100%" viewBox="0 0 517 1405" version="1.1" xmlns="http://www.w3.org/2000/svg" xmlns:xlink="http://www.w3.org/1999/xlink" xml:space="preserve" xmlns:serif="http://www.serif.com/" style="fill-rule:evenodd;clip-rule:evenodd;stroke-linejoin:round;stroke-miterlimit:2;">
    <g transform="matrix(1,0,0,1,-6783.89,-4859.43)">
        <g id="B016" transform="matrix(0.401639,0,0,1.21087,4232.01,4935.35)">
            <rect x="6353.65" y="-62.7" width="1285.35" height="1159.95" style="fill:none;"/>
            <clipPath id="_clip1">
                <rect x="6353.65" y="-62.7" width="1285.35" height="1159.95"/>
            </clipPath>
            <g clip-path="url(#_clip1)">
                <g transform="matrix(2.19375,0,0,1.21088,-8334.06,-73.5754)">
                    <g transform="matrix(4.72895,0,0,2.84178,3942.25,-1364.69)">
                        <path d="M634.703,481.471C634.703,481.471 614.899,496.774 606.797,530.082L623,539.083L604.997,539.981L601.396,549.886L616.7,550.785L598.695,557.987L624.801,568.79L594.193,569.69C594.193,569.69 583.393,603.898 593.294,639.006L625.701,642.606L596.896,649.807C596.896,649.807 593.294,674.113 598.695,702.019L616.7,706.52L598.695,711.921C598.695,711.921 603.196,734.427 615.799,743.428L632.904,738.027L625.701,747.929L635.605,745.229L628.403,754.231C628.403,754.231 635.605,766.833 648.207,767.735C648.207,767.735 675.213,760.533 684.215,735.326L668.01,721.825L689.615,727.226C689.615,727.226 700.417,717.323 698.617,692.117L677.013,685.815L698.617,682.214L686.016,674.113L700.417,669.612C700.417,669.612 707.619,631.804 697.72,593.095L662.609,600.297L694.116,581.394L678.814,573.291L690.517,567.89C690.517,567.89 688.716,547.185 673.41,529.182L655.406,533.683L665.311,520.179C665.311,520.179 662.609,494.974 634.703,481.471Z" style="fill:rgb(171,188,57);fill-rule:nonzero;"/>
                    </g>
                    <g transform="matrix(4.72895,0,0,2.84178,3942.25,-1364.69)">
                        <path d="M641.449,553.389L677.266,542.72L642.21,556.436L641.449,553.389Z" style="fill:rgb(160,161,55);fill-rule:nonzero;"/>
                    </g>
                    <g transform="matrix(4.72895,0,0,2.84178,3942.25,-1364.69)">
                        <path d="M642.591,562.914L685.648,553.008L642.591,568.63L642.591,562.914Z" style="fill:rgb(160,161,55);fill-rule:nonzero;"/>
                    </g>
                    <g transform="matrix(4.72895,0,0,2.84178,3942.25,-1364.69)">
                        <path d="M598.391,576.251L643.353,576.631L642.21,580.824L598.391,576.251Z" style="fill:rgb(160,161,55);fill-rule:nonzero;"/>
                    </g>
                    <g transform="matrix(4.72895,0,0,2.84178,3942.25,-1364.69)">
                        <path d="M607.154,585.397L642.21,584.634L642.972,589.207L607.154,585.397Z" style="fill:rgb(160,161,55);fill-rule:nonzero;"/>
                    </g>
                    <g transform="matrix(4.72895,0,0,2.84178,3942.25,-1364.69)">
                        <path d="M642.972,596.446L596.104,599.112L642.972,601.018L642.972,596.446Z" style="fill:rgb(160,161,55);fill-rule:nonzero;"/>
                    </g>
                    <g transform="matrix(4.72895,0,0,2.84178,3942.25,-1364.69)">
                        <path d="M645.639,620.069L697.08,616.261L645.639,624.262L645.639,620.069Z" style="fill:rgb(160,161,55);fill-rule:nonzero;"/>
                    </g>
                    <g transform="matrix(4.72895,0,0,2.84178,3942.25,-1364.69)">
                        <path d="M645.639,631.12L682.981,629.597L646.402,636.455L645.639,631.12Z" style="fill:rgb(160,161,55);fill-rule:nonzero;"/>
                    </g>
                    <g transform="matrix(4.72895,0,0,2.84178,3942.25,-1364.69)">
                        <path d="M646.402,647.124L694.795,641.789L646.783,653.22L646.402,647.124Z" style="fill:rgb(160,161,55);fill-rule:nonzero;"/>
                    </g>
                    <g transform="matrix(4.72895,0,0,2.84178,3942.25,-1364.69)">
                        <path d="M647.164,660.079L677.266,658.555L647.926,664.272L647.164,660.079Z" style="fill:rgb(160,161,55);fill-rule:nonzero;"/>
                    </g>
                    <g transform="matrix(4.72895,0,0,2.84178,3942.25,-1364.69)">
                        <path d="M647.164,676.083L602.963,680.273L646.783,679.512L647.164,676.083Z" style="fill:rgb(160,161,55);fill-rule:nonzero;"/>
                    </g>
                    <g transform="matrix(4.72895,0,0,2.84178,3942.25,-1364.69)">
                        <path d="M646.402,685.99L692.889,698.185L647.544,690.943L646.402,685.99Z" style="fill:rgb(160,161,55);fill-rule:nonzero;"/>
                    </g>
                    <g transform="matrix(4.72895,0,0,2.84178,3942.25,-1364.69)">
                        <path d="M646.783,697.803L612.489,697.421L646.783,693.231L646.783,697.803Z" style="fill:rgb(160,161,55);fill-rule:nonzero;"/>
                    </g>
                    <g transform="matrix(4.72895,0,0,2.84178,3942.25,-1364.69)">
                        <path d="M647.544,711.9L612.87,721.046L647.544,715.331L647.544,711.9Z" style="fill:rgb(160,161,55);fill-rule:nonzero;"/>
                    </g>
                    <g transform="matrix(4.72895,0,0,2.84178,3942.25,-1364.69)">
                        <path d="M648.307,723.714L677.647,736.669L649.069,727.523L648.307,723.714Z" style="fill:rgb(160,161,55);fill-rule:nonzero;"/>
                    </g>
                    <g transform="matrix(4.72895,0,0,2.84178,3942.25,-1364.69)">
                        <path d="M649.45,733.239L669.265,740.48L649.45,738.573L649.45,733.239Z" style="fill:rgb(160,161,55);fill-rule:nonzero;"/>
                    </g>
                    <g transform="matrix(4.72895,0,0,2.84178,3942.25,-1364.69)">
                        <path d="M634.703,481.471C634.703,481.471 652.709,733.527 641.906,821.745L651.807,823.546C651.807,823.546 654.509,598.497 634.703,481.471Z" style="fill:rgb(146,160,58);fill-rule:nonzero;"/>
                    </g>
                </g>
            </g>
        </g>
    </g>
</svg>
