<?xml version="1.0" encoding="UTF-8" standalone="no"?>
<!DOCTYPE svg PUBLIC "-//W3C//DTD SVG 1.1//EN" "http://www.w3.org/Graphics/SVG/1.1/DTD/svg11.dtd">
<svg width="100%" height="100%" viewBox="0 0 915 1249" version="1.1" xmlns="http://www.w3.org/2000/svg" xmlns:xlink="http://www.w3.org/1999/xlink" xml:space="preserve" xmlns:serif="http://www.serif.com/" style="fill-rule:evenodd;clip-rule:evenodd;stroke-miterlimit:2;">
    <g transform="matrix(1,0,0,1,-43.0264,-2017.6)">
        <g id="B017" transform="matrix(0.711582,0,0,1.07638,-4478.12,2085.09)">
            <rect x="6353.65" y="-62.7" width="1285.35" height="1159.95" style="fill:none;"/>
            <g transform="matrix(-1.40532,0,0,1.19897,16853.6,-62.0883)">
                <g transform="matrix(4.16667,0,0,3.22862,3850.81,-809.752)">
                    <path d="M655.544,499.747C655.544,499.747 681.365,475.413 720.505,479.09C720.505,479.09 689.033,470.856 652.363,491.666L655.544,499.747Z" style="fill:rgb(22,181,130);fill-rule:nonzero;"/>
                </g>
                <g transform="matrix(4.16667,0,0,3.22862,3850.81,-809.752)">
                    <path d="M655.544,499.747C655.544,499.747 681.365,475.413 720.505,479.09C720.505,479.09 689.033,470.856 652.363,491.666L655.544,499.747Z" style="fill:none;stroke:rgb(22,181,130);stroke-width:1px;"/>
                </g>
                <g transform="matrix(4.16667,0,0,3.22862,3850.81,-809.752)">
                    <path d="M845.387,377.162C845.387,377.162 816.983,365.363 802.426,394.595C802.426,394.595 823.729,376.521 845.387,377.162Z" style="fill:rgb(22,181,130);fill-rule:nonzero;"/>
                </g>
                <g transform="matrix(4.16667,0,0,3.22862,3850.81,-809.752)">
                    <path d="M845.387,377.162C845.387,377.162 816.983,365.363 802.426,394.595C802.426,394.595 823.729,376.521 845.387,377.162Z" style="fill:none;stroke:rgb(22,181,130);stroke-width:1px;"/>
                </g>
                <g transform="matrix(4.16667,0,0,3.22862,3850.81,-809.752)">
                    <path d="M838.981,408.461C838.981,408.461 813.656,400.635 792.667,423.51C792.667,423.51 791.424,426.899 789.938,430.73C789.938,430.73 811.898,413.589 838.981,408.461Z" style="fill:rgb(22,181,130);fill-rule:nonzero;"/>
                </g>
                <g transform="matrix(4.16667,0,0,3.22862,3850.81,-809.752)">
                    <path d="M838.981,408.461C838.981,408.461 813.656,400.635 792.667,423.51C792.667,423.51 791.424,426.899 789.938,430.73C789.938,430.73 811.898,413.589 838.981,408.461Z" style="fill:none;stroke:rgb(22,181,130);stroke-width:1px;"/>
                </g>
                <g transform="matrix(4.16667,0,0,3.22862,3850.81,-809.752)">
                    <path d="M828.091,459.933C828.091,459.933 801.479,434.042 765.362,459.211L759.318,462.913C759.318,462.913 800.169,447.239 828.091,459.933Z" style="fill:rgb(22,181,130);fill-rule:nonzero;"/>
                </g>
                <g transform="matrix(4.16667,0,0,3.22862,3850.81,-809.752)">
                    <path d="M828.091,459.933C828.091,459.933 801.479,434.042 765.362,459.211L759.318,462.913C759.318,462.913 800.169,447.239 828.091,459.933Z" style="fill:none;stroke:rgb(22,181,130);stroke-width:1px;"/>
                </g>
                <g transform="matrix(4.16667,0,0,3.22862,3850.81,-809.752)">
                    <path d="M804.114,514.208C804.114,514.208 789.623,479.783 740.982,473.311L732.455,476.258C732.455,476.258 768.892,478.48 804.114,514.208Z" style="fill:rgb(22,181,130);fill-rule:nonzero;"/>
                </g>
                <g transform="matrix(4.16667,0,0,3.22862,3850.81,-809.752)">
                    <path d="M804.114,514.208C804.114,514.208 789.623,479.783 740.982,473.311L732.455,476.258C732.455,476.258 768.892,478.48 804.114,514.208Z" style="fill:none;stroke:rgb(22,181,130);stroke-width:1px;"/>
                </g>
                <g transform="matrix(4.16667,0,0,3.22862,3850.81,-809.752)">
                    <path d="M758.171,386.438C758.171,386.438 781.854,426.384 769.333,456.134L765.362,459.211C765.362,459.211 770.11,429.911 758.171,386.438Z" style="fill:rgb(16,148,104);fill-rule:nonzero;"/>
                </g>
                <g transform="matrix(4.16667,0,0,3.22862,3850.81,-809.752)">
                    <path d="M758.171,386.438C758.171,386.438 781.854,426.384 769.333,456.134L765.362,459.211C765.362,459.211 770.11,429.911 758.171,386.438Z" style="fill:none;stroke:rgb(16,148,104);stroke-width:1px;"/>
                </g>
                <g transform="matrix(4.16667,0,0,3.22862,3850.81,-809.752)">
                    <path d="M739.505,391.505C739.505,391.505 758.216,437.471 737.094,472.442L730.844,475.452C730.844,475.452 745.47,443.939 739.505,391.505Z" style="fill:rgb(22,181,130);fill-rule:nonzero;"/>
                </g>
                <g transform="matrix(4.16667,0,0,3.22862,3850.81,-809.752)">
                    <path d="M739.505,391.505C739.505,391.505 758.216,437.471 737.094,472.442L730.844,475.452C730.844,475.452 745.47,443.939 739.505,391.505Z" style="fill:none;stroke:rgb(22,181,130);stroke-width:1px;"/>
                </g>
                <g transform="matrix(4.16667,0,0,3.22862,3850.81,-809.752)">
                    <path d="M709.954,381.35C709.954,381.35 741.304,431.793 710.728,477.885L705.961,477.061C705.961,477.061 727.975,435.048 709.954,381.35Z" style="fill:rgb(22,181,130);fill-rule:nonzero;"/>
                </g>
                <g transform="matrix(4.16667,0,0,3.22862,3850.81,-809.752)">
                    <path d="M709.954,381.35C709.954,381.35 741.304,431.793 710.728,477.885L705.961,477.061C705.961,477.061 727.975,435.048 709.954,381.35Z" style="fill:none;stroke:rgb(22,181,130);stroke-width:1px;"/>
                </g>
                <g transform="matrix(4.16667,0,0,3.22862,3850.81,-809.752)">
                    <path d="M677.072,382.189C677.072,382.189 717.782,424.936 696.774,479.069L691.525,479.143C691.525,479.143 706.316,434.402 677.072,382.189Z" style="fill:rgb(22,181,130);fill-rule:nonzero;"/>
                </g>
                <g transform="matrix(4.16667,0,0,3.22862,3850.81,-809.752)">
                    <path d="M677.072,382.189C677.072,382.189 717.782,424.936 696.774,479.069L691.525,479.143C691.525,479.143 706.316,434.402 677.072,382.189Z" style="fill:none;stroke:rgb(22,181,130);stroke-width:1px;"/>
                </g>
                <g transform="matrix(4.16667,0,0,3.22862,3850.81,-809.752)">
                    <path d="M764.851,537.686C764.851,537.686 759.753,494.403 724.646,477.847C724.646,477.847 720.744,478.646 714.353,478.683C714.353,478.683 746.278,494.692 764.851,537.686Z" style="fill:rgb(16,148,104);fill-rule:nonzero;"/>
                </g>
                <g transform="matrix(4.16667,0,0,3.22862,3850.81,-809.752)">
                    <path d="M764.851,537.686C764.851,537.686 759.753,494.403 724.646,477.847C724.646,477.847 720.744,478.646 714.353,478.683C714.353,478.683 746.278,494.692 764.851,537.686Z" style="fill:none;stroke:rgb(16,148,104);stroke-width:1px;"/>
                </g>
                <g transform="matrix(4.16667,0,0,3.22862,3850.81,-809.752)">
                    <path d="M712.939,549.145C712.939,549.145 729.148,495.316 698.396,478.203L692.838,481.007C692.838,481.007 715.95,494.015 712.939,549.145Z" style="fill:rgb(22,181,130);fill-rule:nonzero;"/>
                </g>
                <g transform="matrix(4.16667,0,0,3.22862,3850.81,-809.752)">
                    <path d="M712.939,549.145C712.939,549.145 729.148,495.316 698.396,478.203L692.838,481.007C692.838,481.007 715.95,494.015 712.939,549.145Z" style="fill:none;stroke:rgb(22,181,130);stroke-width:1px;"/>
                </g>
                <g transform="matrix(4.16667,0,0,3.22862,3850.81,-809.752)">
                    <path d="M780.78,355.16C780.78,355.16 803.206,368.373 802.426,394.595L800.699,398.878C800.699,398.878 798.271,380.779 780.78,355.16Z" style="fill:rgb(22,181,130);fill-rule:nonzero;"/>
                </g>
                <g transform="matrix(4.16667,0,0,3.22862,3850.81,-809.752)">
                    <path d="M780.78,355.16C780.78,355.16 803.206,368.373 802.426,394.595L800.699,398.878C800.699,398.878 798.271,380.779 780.78,355.16Z" style="fill:none;stroke:rgb(22,181,130);stroke-width:1px;"/>
                </g>
                <g transform="matrix(4.16667,0,0,3.22862,3850.81,-809.752)">
                    <path d="M771.667,370.383C771.667,370.383 796.686,388.469 790.382,423.878L787.897,430.653C787.897,430.653 788.503,395.068 771.667,370.383Z" style="fill:rgb(16,148,104);fill-rule:nonzero;"/>
                </g>
                <g transform="matrix(4.16667,0,0,3.22862,3850.81,-809.752)">
                    <path d="M771.667,370.383C771.667,370.383 796.686,388.469 790.382,423.878L787.897,430.653C787.897,430.653 788.503,395.068 771.667,370.383Z" style="fill:none;stroke:rgb(16,148,104);stroke-width:1px;"/>
                </g>
                <g transform="matrix(4.16667,0,0,3.22862,3850.81,-809.752)">
                    <path d="M775.134,315.06C775.134,315.06 800.593,325.862 807.108,360.05L805.381,364.332C805.381,364.332 797.285,337.397 775.134,315.06Z" style="fill:rgb(22,181,130);fill-rule:nonzero;"/>
                </g>
                <g transform="matrix(4.16667,0,0,3.22862,3850.81,-809.752)">
                    <path d="M775.134,315.06C775.134,315.06 800.593,325.862 807.108,360.05L805.381,364.332C805.381,364.332 797.285,337.397 775.134,315.06Z" style="fill:none;stroke:rgb(22,181,130);stroke-width:1px;"/>
                </g>
                <g transform="matrix(4.16667,0,0,3.22862,3850.81,-809.752)">
                    <path d="M781.196,287.633C781.196,287.633 804.793,299.744 808.085,319.466L805.844,325.786C805.844,325.786 800.132,303.032 781.196,287.633Z" style="fill:rgb(22,181,130);fill-rule:nonzero;"/>
                </g>
                <g transform="matrix(4.16667,0,0,3.22862,3850.81,-809.752)">
                    <path d="M781.196,287.633C781.196,287.633 804.793,299.744 808.085,319.466L805.844,325.786C805.844,325.786 800.132,303.032 781.196,287.633Z" style="fill:none;stroke:rgb(22,181,130);stroke-width:1px;"/>
                </g>
                <g transform="matrix(4.16667,0,0,3.22862,3850.81,-809.752)">
                    <path d="M805.673,270.103C805.673,270.103 817.632,282.323 817.43,296.698L814.292,302.534C814.292,302.534 812.935,286.754 805.673,270.103Z" style="fill:rgb(22,181,130);fill-rule:nonzero;"/>
                </g>
                <g transform="matrix(4.16667,0,0,3.22862,3850.81,-809.752)">
                    <path d="M805.673,270.103C805.673,270.103 817.632,282.323 817.43,296.698L814.292,302.534C814.292,302.534 812.935,286.754 805.673,270.103Z" style="fill:none;stroke:rgb(22,181,130);stroke-width:1px;"/>
                </g>
                <g transform="matrix(4.16667,0,0,3.22862,3850.81,-809.752)">
                    <path d="M865,300.85C865,300.85 836.184,287.674 820.749,292.69L816.465,298.492C816.465,298.492 825.271,293.962 865,300.85Z" style="fill:rgb(22,181,130);fill-rule:nonzero;"/>
                </g>
                <g transform="matrix(4.16667,0,0,3.22862,3850.81,-809.752)">
                    <path d="M865,300.85C865,300.85 836.184,287.674 820.749,292.69L816.465,298.492C816.465,298.492 825.271,293.962 865,300.85Z" style="fill:none;stroke:rgb(22,181,130);stroke-width:1px;"/>
                </g>
                <g transform="matrix(4.16667,0,0,3.22862,3850.81,-809.752)">
                    <path d="M850.643,311.815C850.643,311.815 818.546,301.504 808.055,316.709L807.886,322.411C807.886,322.411 819.207,309.972 850.643,311.815Z" style="fill:rgb(16,148,104);fill-rule:nonzero;"/>
                </g>
                <g transform="matrix(4.16667,0,0,3.22862,3850.81,-809.752)">
                    <path d="M850.643,311.815C850.643,311.815 818.546,301.504 808.055,316.709L807.886,322.411C807.886,322.411 819.207,309.972 850.643,311.815Z" style="fill:none;stroke:rgb(16,148,104);stroke-width:1px;"/>
                </g>
                <g transform="matrix(4.16667,0,0,3.22862,3850.81,-809.752)">
                    <path d="M843.12,330.776C843.12,330.776 820.896,318.248 805.364,334.214L805.645,340.154C805.645,340.154 819.972,326.433 843.12,330.776Z" style="fill:rgb(16,148,104);fill-rule:nonzero;"/>
                </g>
                <g transform="matrix(4.16667,0,0,3.22862,3850.81,-809.752)">
                    <path d="M843.12,330.776C843.12,330.776 820.896,318.248 805.364,334.214L805.645,340.154C805.645,340.154 819.972,326.433 843.12,330.776Z" style="fill:none;stroke:rgb(16,148,104);stroke-width:1px;"/>
                </g>
                <g transform="matrix(4.16667,0,0,3.22862,3850.81,-809.752)">
                    <path d="M843.681,350.185C843.681,350.185 820.285,338.766 805.374,356.805L805.381,364.332C805.381,364.332 820.987,346.09 843.681,350.185Z" style="fill:rgb(16,148,104);fill-rule:nonzero;"/>
                </g>
                <g transform="matrix(4.16667,0,0,3.22862,3850.81,-809.752)">
                    <path d="M843.681,350.185C843.681,350.185 820.285,338.766 805.374,356.805L805.381,364.332C805.381,364.332 820.987,346.09 843.681,350.185Z" style="fill:none;stroke:rgb(16,148,104);stroke-width:1px;"/>
                </g>
                <g transform="matrix(4.16667,0,0,3.22862,3850.81,-809.752)">
                    <path d="M829.23,281.314C829.23,281.314 803.813,305.298 804.171,335.727C804.171,335.727 807.752,380.833 797.013,409.113C786.272,437.394 765.866,478.563 694.271,477.847L700.356,479.995C700.356,479.995 745.949,480.243 769.333,456.134C769.333,456.134 793.789,436.32 803.813,391.572C803.813,391.572 807.393,368.661 807.035,336.442C807.035,336.442 804.529,310.311 829.23,281.314Z" style="fill:rgb(22,181,130);fill-rule:nonzero;"/>
                </g>
                <g transform="matrix(4.16667,0,0,3.22862,3850.81,-809.752)">
                    <path d="M829.23,281.314C829.23,281.314 803.813,305.298 804.171,335.727C804.171,335.727 807.752,380.833 797.013,409.113C786.272,437.394 765.866,478.563 694.271,477.847L700.356,479.995C700.356,479.995 745.949,480.243 769.333,456.134C769.333,456.134 793.789,436.32 803.813,391.572C803.813,391.572 807.393,368.661 807.035,336.442C807.035,336.442 804.529,310.311 829.23,281.314Z" style="fill:none;stroke:rgb(22,181,130);stroke-width:1px;"/>
                </g>
                <g transform="matrix(4.16667,0,0,3.22862,3839.06,-803.679)">
                    <path d="M821.42,252.145C821.42,252.145 831.687,267.512 825.201,286.027L821.4,290.932C821.4,290.932 824.501,271.173 821.42,252.145Z" style="fill:rgb(16,148,104);fill-rule:nonzero;"/>
                </g>
                <g transform="matrix(4.16667,0,0,3.22862,3839.06,-803.679)">
                    <path d="M821.42,252.145C821.42,252.145 831.687,267.512 825.201,286.027L821.4,290.932C821.4,290.932 824.501,271.173 821.42,252.145Z" style="fill:none;stroke:rgb(16,148,104);stroke-width:1px;"/>
                </g>
            </g>
        </g>
    </g>
</svg>
