<?xml version="1.0" encoding="UTF-8" standalone="no"?>
<!DOCTYPE svg PUBLIC "-//W3C//DTD SVG 1.1//EN" "http://www.w3.org/Graphics/SVG/1.1/DTD/svg11.dtd">
<svg width="100%" height="100%" viewBox="0 0 312 840" version="1.1" xmlns="http://www.w3.org/2000/svg" xmlns:xlink="http://www.w3.org/1999/xlink" xml:space="preserve" xmlns:serif="http://www.serif.com/" style="fill-rule:evenodd;clip-rule:evenodd;stroke-linejoin:round;stroke-miterlimit:2;">
    <g transform="matrix(1,0,0,1,-4884.71,-794.261)">
        <g id="B002" transform="matrix(0.242619,0,0,0.723761,3343.19,839.64)">
            <rect x="6353.65" y="-62.7" width="1285.35" height="1159.95" style="fill:none;"/>
            <clipPath id="_clip1">
                <rect x="6353.65" y="-62.7" width="1285.35" height="1159.95"/>
            </clipPath>
            <g clip-path="url(#_clip1)">
                <g transform="matrix(-0.00270801,-1.38167,4.12169,-0.000907777,4942.31,10168.5)">
                    <g transform="matrix(4.16667,0,0,4.16667,4828.54,102.187)">
                        <path d="M498.478,94.001C498.478,94.001 508.938,99.124 527.068,101.617C526.973,99.855 526.899,98.089 526.801,96.325C516.697,94.837 506.269,92.356 499.239,88.216C499.239,88.216 473.652,72.492 440.502,92.991C440.502,92.991 421.38,98.564 416.342,94.371L417.932,100.169C417.932,100.169 434.204,101.723 444.285,95.549C444.285,95.549 470.817,77.268 498.478,94.001Z" style="fill:rgb(181,189,52);fill-rule:nonzero;"/>
                    </g>
                    <g transform="matrix(4.16667,0,0,4.16667,4828.54,102.187)">
                        <path d="M614.605,96.93C614.605,96.93 595.343,82.331 568.218,80.525C567.032,80.447 562.457,85.188 561.219,85.906C559.563,86.867 554.348,88.617 552.728,87.117C549.936,84.534 557.524,78.144 559.644,77.484C559.644,77.484 558.771,72.96 547.666,71.348C546.525,71.183 540.492,77.332 539.235,78.107C537.331,79.286 534.915,80.76 532.585,80.772C528.982,80.792 527.022,79.003 529.569,76.168C532.366,73.049 536.143,70.617 539.533,68.218C539.533,68.218 521.146,58.147 508.554,61.051C507.271,61.346 503.839,67.968 502.772,69.132C501.264,70.774 499.54,72.55 497.385,73.316C494.22,74.442 492.438,72.96 494.082,69.978C495.806,66.854 499.05,64.206 501.674,61.911C501.674,61.911 489.302,58.664 475.041,67.526C474.2,69.323 473.211,71.097 472.071,72.721C471.314,73.8 468.17,77.539 466.735,76.602C464.321,75.026 469.7,69.356 470.514,68.401C470.514,68.401 446.612,71.14 440.502,92.991C439.902,95.137 450.106,104.913 451.768,106.486C453.72,108.336 455.853,110.118 458.28,111.311C459.977,112.144 462.871,112.901 464.696,112.524C464.443,109.882 461.738,102 466.377,101.424C469.057,101.091 471.21,105.899 472.587,107.638C476.388,112.44 480.695,116.973 485.468,120.828C487.69,122.622 490.184,124.795 493.164,125.045C496.644,125.338 500.24,123.221 503.451,122.166C503.451,122.166 497.305,107.381 505.832,117.477C505.832,117.477 513.09,128.29 519.955,129.78C519.955,129.78 527.343,133.989 537.323,129.713C537.323,129.713 525.026,114.708 539.721,122.674L550.614,130.433C550.614,130.433 558.034,129.939 564.143,122.651C564.143,122.651 551.746,109.544 564.293,113.697C564.293,113.697 572.398,119.178 573.916,122.173C573.916,122.173 585.029,123.783 588.684,118.381C588.558,118.569 583.825,114.078 583.548,113.561C581.872,110.423 585.357,109.218 587.859,109.497C590.196,109.758 595.413,114.843 596.851,114.452C596.851,114.452 608.904,111.184 614.605,96.93Z" style="fill:rgb(200,218,43);fill-rule:nonzero;"/>
                    </g>
                    <g transform="matrix(4.16667,0,0,4.16667,4828.54,102.187)">
                        <path d="M505.832,117.477C505.832,117.477 513.09,128.29 519.955,129.78C519.955,129.78 527.343,133.989 537.323,129.713C537.323,129.713 525.026,114.708 539.721,122.674L550.614,130.433C550.614,130.433 558.034,129.939 564.143,122.651C564.143,122.651 551.746,109.544 564.293,113.697C564.293,113.697 572.398,119.178 573.916,122.173C573.916,122.173 585.029,123.783 588.684,118.381C588.558,118.569 583.825,114.078 583.548,113.561C581.872,110.423 585.357,109.218 587.859,109.497C590.196,109.758 595.413,114.843 596.851,114.452C596.851,114.452 607.881,111.454 613.828,98.709C603.864,102.071 592.472,100.717 582.186,100.081C565.419,99.042 548.563,99.495 531.775,98.959C515.017,98.424 498.792,92.804 482.294,90.268C473.911,88.98 465.392,86.548 456.841,87.926C451.499,88.787 446.337,90.447 441.029,91.309C440.844,91.859 440.663,92.414 440.502,92.991C439.902,95.137 450.106,104.913 451.768,106.486C453.72,108.336 455.853,110.118 458.28,111.311C459.977,112.144 462.871,112.901 464.696,112.524C464.443,109.882 461.738,102 466.377,101.424C469.057,101.091 471.21,105.899 472.587,107.638C476.388,112.44 480.695,116.973 485.468,120.828C487.69,122.622 490.184,124.795 493.164,125.045C496.644,125.338 500.24,123.221 503.451,122.166C503.451,122.166 497.305,107.381 505.832,117.477Z" style="fill:rgb(186,187,51);fill-rule:nonzero;"/>
                    </g>
                </g>
            </g>
        </g>
    </g>
</svg>
