<?xml version="1.0" encoding="UTF-8" standalone="no"?>
<!DOCTYPE svg PUBLIC "-//W3C//DTD SVG 1.1//EN" "http://www.w3.org/Graphics/SVG/1.1/DTD/svg11.dtd">
<svg width="100%" height="100%" viewBox="0 0 616 852" version="1.1" xmlns="http://www.w3.org/2000/svg" xmlns:xlink="http://www.w3.org/1999/xlink" xml:space="preserve" xmlns:serif="http://www.serif.com/" style="fill-rule:evenodd;clip-rule:evenodd;stroke-linejoin:round;stroke-miterlimit:2;">
    <g transform="matrix(1,0,0,1,-6706.92,-2073.06)">
        <g id="B003" transform="matrix(0.478587,0,0,0.734305,3666.14,2119.1)">
            <rect x="6353.65" y="-62.7" width="1285.35" height="1159.95" style="fill:none;"/>
            <clipPath id="_clip1">
                <rect x="6353.65" y="-62.7" width="1285.35" height="1159.95"/>
            </clipPath>
            <g clip-path="url(#_clip1)">
                <g transform="matrix(-2.08948,0,0,1.36183,21650,-137.201)">
                    <g transform="matrix(4.16667,0,0,4.16667,5596.61,-242.661)">
                        <path d="M386.349,99.456C386.349,99.456 359.451,102.397 342.638,149.891C342.638,149.891 372.9,137.702 386.349,99.456Z" style="fill:rgb(80,164,119);fill-rule:nonzero;"/>
                    </g>
                    <g transform="matrix(4.16667,0,0,4.16667,5596.61,-242.661)">
                        <path d="M413.667,151.445C413.667,151.445 373.318,141.357 339.274,174.141C339.274,174.141 380.463,181.707 413.667,151.445Z" style="fill:rgb(80,164,119);fill-rule:nonzero;"/>
                    </g>
                    <g transform="matrix(4.16667,0,0,4.16667,5596.61,-242.661)">
                        <path d="M400.474,189.692C400.474,189.692 357.183,181.287 334.487,204.823C334.487,204.823 371.055,209.447 400.474,189.692Z" style="fill:rgb(49,143,89);fill-rule:nonzero;"/>
                    </g>
                    <g transform="matrix(4.16667,0,0,4.16667,5596.61,-242.661)">
                        <path d="M383.496,217.286C383.496,217.286 351.553,210.142 328.857,227.373C328.857,227.373 363.743,232.837 383.496,217.286Z" style="fill:rgb(49,143,89);fill-rule:nonzero;"/>
                    </g>
                    <g transform="matrix(4.16667,0,0,4.16667,5596.61,-242.661)">
                        <path d="M393.4,240.987C393.4,240.987 348.845,230.06 321.948,251.915C321.948,251.915 361.459,261.161 393.4,240.987Z" style="fill:rgb(80,164,119);fill-rule:nonzero;"/>
                    </g>
                    <g transform="matrix(4.16667,0,0,4.16667,5596.61,-242.661)">
                        <path d="M289.935,124.127C289.935,124.127 304.224,158.169 340.37,166.155C340.37,166.155 331.124,138.837 289.935,124.127Z" style="fill:rgb(80,164,119);fill-rule:nonzero;"/>
                    </g>
                    <g transform="matrix(4.16667,0,0,4.16667,5596.61,-242.661)">
                        <path d="M268.082,166.155C268.082,166.155 315.574,159.011 337.009,192.635C337.009,192.635 285.733,190.532 268.082,166.155Z" style="fill:rgb(49,143,89);fill-rule:nonzero;"/>
                    </g>
                    <g transform="matrix(4.16667,0,0,4.16667,5596.61,-242.661)">
                        <path d="M273.125,201.04C273.125,201.04 309.267,192.215 330.284,217.432C330.284,217.432 284.473,217.012 273.125,201.04Z" style="fill:rgb(80,164,119);fill-rule:nonzero;"/>
                    </g>
                    <g transform="matrix(4.16667,0,0,4.16667,5596.61,-242.661)">
                        <path d="M322.113,249.648C322.113,249.648 309.504,223.169 272.938,224.431C272.938,224.431 288.069,243.763 322.113,249.648Z" style="fill:rgb(80,164,119);fill-rule:nonzero;"/>
                    </g>
                    <g transform="matrix(4.16667,0,0,4.16667,5596.61,-242.661)">
                        <path d="M344.151,129.588C344.151,129.588 337.007,224.995 309.267,275.852L316.832,277.953C316.832,277.953 338.688,206.083 345.833,127.488L344.151,129.588Z" style="fill:rgb(83,120,54);fill-rule:nonzero;"/>
                    </g>
                    <g transform="matrix(4.16667,0,0,4.16667,5596.61,-242.661)">
                        <path d="M343.653,72.771C343.653,72.771 328.946,99.669 344.495,137.495C344.495,137.495 355.001,99.249 343.653,72.771Z" style="fill:rgb(49,143,89);fill-rule:nonzero;"/>
                    </g>
                </g>
            </g>
        </g>
    </g>
</svg>
