<?xml version="1.0" encoding="UTF-8" standalone="no"?>
<!DOCTYPE svg PUBLIC "-//W3C//DTD SVG 1.1//EN" "http://www.w3.org/Graphics/SVG/1.1/DTD/svg11.dtd">
<svg width="100%" height="100%" viewBox="0 0 926 855" version="1.1" xmlns="http://www.w3.org/2000/svg" xmlns:xlink="http://www.w3.org/1999/xlink" xml:space="preserve" xmlns:serif="http://www.serif.com/" style="fill-rule:evenodd;clip-rule:evenodd;stroke-linejoin:round;stroke-miterlimit:2;">
    <g transform="matrix(1,0,0,1,-4904.3,-2206.01)">
        <g id="B004" transform="matrix(0.720264,0,0,0.736413,327.992,2252.18)">
            <rect x="6353.65" y="-62.7" width="1285.35" height="1159.95" style="fill:none;"/>
            <clipPath id="_clip1">
                <rect x="6353.65" y="-62.7" width="1285.35" height="1159.95"/>
            </clipPath>
            <g clip-path="url(#_clip1)">
                <g transform="matrix(5.78492,0,0,5.65805,2742.39,-377.47)">
                    <path d="M760.07,55.044C760.07,55.044 732.574,156.875 723.528,196.562C723.528,196.562 755.697,108.137 760.07,55.044Z" style="fill:rgb(16,148,104);fill-rule:nonzero;"/>
                </g>
                <g transform="matrix(5.78492,0,0,5.65805,2742.39,-377.47)">
                    <path d="M784.495,66.241C784.495,66.241 737.002,152.324 723.528,196.562C723.528,196.562 775.053,103.626 784.495,66.241Z" style="fill:rgb(16,148,104);fill-rule:nonzero;"/>
                </g>
                <g transform="matrix(5.78492,0,0,5.65805,2742.39,-377.47)">
                    <path d="M805.291,83.592C805.291,83.592 739.092,158.876 722.75,197.448C722.75,197.448 788.25,120.448 805.291,83.592Z" style="fill:rgb(16,148,104);fill-rule:nonzero;"/>
                </g>
                <g transform="matrix(5.78492,0,0,5.65805,2742.39,-377.47)">
                    <path d="M803.922,108.722C803.922,108.722 746.911,164.231 725.115,194.505C725.115,194.505 790.03,131.241 803.922,108.722Z" style="fill:rgb(16,148,104);fill-rule:nonzero;"/>
                </g>
                <g transform="matrix(5.78492,0,0,5.65805,2742.39,-377.47)">
                    <path d="M739.654,70.521C739.654,70.521 723,167.948 724.028,197.312C724.028,197.312 744,109.948 739.654,70.521Z" style="fill:rgb(16,148,104);fill-rule:nonzero;"/>
                </g>
                <g transform="matrix(5.78492,0,0,5.65805,2742.39,-377.47)">
                    <path d="M710.605,66.794C710.605,66.794 711.089,146.763 724.278,197.312C724.278,197.312 722.741,129.128 710.605,66.794Z" style="fill:rgb(16,148,104);fill-rule:nonzero;"/>
                </g>
                <g transform="matrix(5.78492,0,0,5.65805,2742.39,-377.47)">
                    <path d="M725.981,82.694C725.981,82.694 718.165,168.115 723.528,196.562C723.528,196.562 730.403,122.196 725.981,82.694Z" style="fill:rgb(16,148,104);fill-rule:nonzero;"/>
                </g>
                <g transform="matrix(5.78492,0,0,5.65805,2742.39,-377.47)">
                    <path d="M688.143,74.849C688.143,74.849 708.671,165.345 724.028,196.812C724.028,196.812 704.056,102.667 688.143,74.849Z" style="fill:rgb(16,148,104);fill-rule:nonzero;"/>
                </g>
                <g transform="matrix(5.78492,0,0,5.65805,2742.39,-377.47)">
                    <path d="M666.281,92.245C666.281,92.245 678.517,144.141 723.528,196.562C723.528,196.562 682.539,127.581 666.281,92.245Z" style="fill:rgb(16,148,104);fill-rule:nonzero;"/>
                </g>
                <g transform="matrix(5.78492,0,0,5.65805,2742.39,-377.47)">
                    <path d="M676.638,85.805C676.638,85.805 696.192,158.233 723.903,196.812C723.903,196.812 691.76,109.022 676.638,85.805Z" style="fill:rgb(16,148,104);fill-rule:nonzero;"/>
                </g>
                <g transform="matrix(5.78492,0,0,5.65805,2742.39,-377.47)">
                    <path d="M831.026,123.374C831.026,123.374 745.102,167.748 723.528,196.562C723.528,196.562 793.015,157.144 831.026,123.374Z" style="fill:rgb(16,148,104);fill-rule:nonzero;"/>
                </g>
                <g transform="matrix(5.78492,0,0,5.65805,2742.39,-377.47)">
                    <path d="M836.095,139.082C836.095,139.082 750.443,176.778 723.528,196.562C723.528,196.562 795.327,166.457 836.095,139.082Z" style="fill:rgb(16,148,104);fill-rule:nonzero;"/>
                </g>
                <g transform="matrix(5.78492,0,0,5.65805,2742.39,-377.47)">
                    <path d="M842.399,156.472C842.399,156.472 744.494,176.617 723.528,196.562C723.528,196.562 813.68,168.512 842.399,156.472Z" style="fill:rgb(16,148,104);fill-rule:nonzero;"/>
                </g>
                <g transform="matrix(5.78492,0,0,5.65805,2742.39,-377.47)">
                    <path d="M844.214,173.921C844.214,173.921 763.07,177.212 723.528,196.562C723.528,196.562 812.8,184.059 844.214,173.921Z" style="fill:rgb(16,148,104);fill-rule:nonzero;"/>
                </g>
                <g transform="matrix(5.78492,0,0,5.65805,2742.39,-377.47)">
                    <path d="M651.537,105.674C651.537,105.674 705.648,166.951 723.528,196.562C723.528,196.562 659.535,131.536 651.537,105.674Z" style="fill:rgb(16,148,104);fill-rule:nonzero;"/>
                </g>
                <g transform="matrix(5.78492,0,0,5.65805,2742.39,-377.47)">
                    <path d="M631.969,121.354C631.969,121.354 696.041,156.524 723.528,196.562C723.528,196.562 640.624,133.128 631.969,121.354Z" style="fill:rgb(16,148,104);fill-rule:nonzero;"/>
                </g>
                <g transform="matrix(5.78492,0,0,5.65805,2742.39,-377.47)">
                    <path d="M626.548,142.18C626.548,142.18 701.796,168.088 724.5,195.448C724.5,195.448 653.73,159.77 626.548,142.18Z" style="fill:rgb(16,148,104);fill-rule:nonzero;"/>
                </g>
                <g transform="matrix(5.78492,0,0,5.65805,2742.39,-377.47)">
                    <path d="M631.941,167.874C631.941,167.874 693.561,173.819 723.834,195.615C723.834,195.615 665.567,177.488 631.941,167.874Z" style="fill:rgb(16,148,104);fill-rule:nonzero;"/>
                </g>
                <g transform="matrix(5.78492,0,0,5.65805,2742.39,-377.47)">
                    <path d="M663.879,186.032C663.879,186.032 705.056,190.945 727.438,195.753C727.438,195.753 692.141,195.656 663.879,186.032Z" style="fill:rgb(16,148,104);fill-rule:nonzero;"/>
                </g>
                <g transform="matrix(5.78492,0,0,5.65805,2742.39,-377.47)">
                    <path d="M844.348,192.609C844.348,192.609 762.351,186.809 723.243,193.532C723.243,193.532 818.091,198.307 844.348,192.609Z" style="fill:rgb(16,148,104);fill-rule:nonzero;"/>
                </g>
                <g transform="matrix(5.78492,0,0,5.65805,2742.39,-377.47)">
                    <path d="M844.181,214.767C844.181,214.767 763.227,187.471 723.278,194.812C723.278,194.812 819.148,212.437 844.181,214.767Z" style="fill:rgb(16,148,104);fill-rule:nonzero;"/>
                </g>
                <g transform="matrix(5.78492,0,0,5.65805,2742.39,-377.47)">
                    <path d="M796.402,223.286C796.402,223.286 743.62,197.307 723.919,194.299C723.919,194.299 762.219,217.32 796.402,223.286Z" style="fill:rgb(16,148,104);fill-rule:nonzero;"/>
                </g>
                <g transform="matrix(5.78492,0,0,5.65805,2742.39,-377.47)">
                    <path d="M655.746,254.161C655.746,254.161 712.203,256.061 723.243,193.532L727.115,192.63C727.115,192.63 722.642,256.162 655.807,258.65L655.746,254.161Z" style="fill:rgb(16,148,104);fill-rule:nonzero;"/>
                </g>
            </g>
        </g>
    </g>
</svg>
