<?xml version="1.0" encoding="UTF-8" standalone="no"?>
<!DOCTYPE svg PUBLIC "-//W3C//DTD SVG 1.1//EN" "http://www.w3.org/Graphics/SVG/1.1/DTD/svg11.dtd">
<svg width="100%" height="100%" viewBox="0 0 739 934" version="1.1" xmlns="http://www.w3.org/2000/svg" xmlns:xlink="http://www.w3.org/1999/xlink" xml:space="preserve" xmlns:serif="http://www.serif.com/" style="fill-rule:evenodd;clip-rule:evenodd;stroke-linejoin:round;stroke-miterlimit:2;">
    <g transform="matrix(1,0,0,1,-5523.17,-3447.7)">
        <g id="B005" transform="matrix(0.574211,0,0,0.804946,1874.83,3498.17)">
            <rect x="6353.65" y="-62.7" width="1285.35" height="1159.95" style="fill:none;"/>
            <g transform="matrix(1.74152,0,0,1.24232,-5084.25,-94.2906)">
                <g>
                    <g transform="matrix(4.16667,0,0,4.16667,6098.21,-1351.66)">
                        <path d="M259.6,507.036C259.6,507.036 265.6,534.034 261.1,546.034L276.099,544.534C276.099,544.534 274.6,522.036 265.6,505.536L259.6,507.036Z" style="fill:rgb(77,166,94);fill-rule:nonzero;"/>
                    </g>
                    <g transform="matrix(4.16667,0,0,4.16667,6098.21,-1351.66)">
                        <path d="M200.093,463.673C199.934,464.083 199.868,464.699 199.901,465.578C200.548,481.243 219.258,496.139 231.865,502.577C231.922,502.607 261.739,517.148 266.13,520.08C266.13,520.08 264.174,480.25 207.712,400.219C207.712,400.219 174.869,351.01 117.255,338.452C117.255,338.452 116.17,342.714 134.22,360.928C137.445,364.181 139.728,367.441 143.896,369.823C151.646,374.251 160.335,372.047 168.63,373.816C175.232,375.223 182.143,379.165 173.571,384.572C169.306,387.26 162.29,382.522 158.755,385.47C155.225,388.415 161.465,393.204 163.223,395.541C166.064,399.233 168.857,402.968 171.648,406.698C176.391,413.026 179.699,417.79 188.308,414.641C188.308,414.641 203.398,411.222 212.886,420.294C212.886,420.294 216.129,426.565 205.26,424.099C205.26,424.099 193.47,421.702 186.835,426.365C183.273,428.871 187.376,435.148 188.839,437.734C191,441.553 193.181,445.673 194.124,450.004C194.124,450.004 195.519,456.411 202.849,454.95C202.849,454.95 222.63,452.12 235.428,468.392C235.428,468.392 246.968,480.105 229.559,477.185C229.559,477.185 218.624,473.791 206.976,467.192C205.051,466.092 201.036,461.188 200.093,463.673Z" style="fill:rgb(106,181,123);fill-rule:nonzero;"/>
                    </g>
                    <g transform="matrix(4.16667,0,0,4.16667,6098.21,-1351.66)">
                        <path d="M280.846,473C280.846,473 268.422,484.36 264.737,481.605C264.737,481.605 257.534,478.407 269.594,468.469C275.989,463.804 283.548,463.409 282.246,453.844C282.246,453.844 279.767,435.665 271.726,420.911C271.726,420.911 269.835,414.076 266.424,421.528C266.424,421.528 255.536,447.646 248.254,446.548C248.254,446.548 235.22,443.076 247.838,427.987C247.838,427.987 259.496,412.501 262.103,409.988C262.103,409.988 264.958,407.69 257.104,398.732C257.104,398.732 246.458,386.49 239.864,382.086C239.864,382.086 234.791,379.433 234.549,385.724C234.549,385.724 229.693,398.86 228.433,410.336C228.433,410.336 223.633,417.889 222.582,406.579C222.582,406.579 220.521,390.926 223.328,375.151C223.328,375.151 227.482,368.345 214.823,360.43C209.902,357.398 190.791,344.919 195.271,359.988C195.271,359.988 202.031,382.737 194.164,376.801C194.164,376.801 188.022,359.352 178.445,345.869C175.924,342.32 169.908,339.144 165.607,338.667C165.607,338.667 159.281,337.964 160.991,345.508C160.991,345.508 162.7,353.053 153.458,344.193C153.458,344.193 133.129,326.613 117.255,338.452C117.255,338.452 175.303,357.02 199.385,394.316C199.385,394.316 245.902,455.78 263.899,518.151L266.13,520.08C266.13,520.08 285.382,500.325 287.11,479.288C287.11,479.288 288.269,466.421 280.846,473Z" style="fill:rgb(69,173,168);fill-rule:nonzero;"/>
                    </g>
                    <g transform="matrix(4.16667,0,0,4.16667,6098.21,-1351.66)">
                        <path d="M200.093,463.673C199.934,464.083 199.868,464.699 199.901,465.578C200.548,481.243 219.258,496.139 231.865,502.577C231.922,502.607 261.739,517.148 266.13,520.08C266.13,520.08 264.174,480.25 207.712,400.219C207.712,400.219 174.869,351.01 117.255,338.452C117.255,338.452 116.17,342.714 134.22,360.928C137.445,364.181 139.728,367.441 143.896,369.823C151.646,374.251 160.335,372.047 168.63,373.816C175.232,375.223 182.143,379.165 173.571,384.572C169.306,387.26 162.29,382.522 158.755,385.47C155.225,388.415 161.465,393.204 163.223,395.541C166.064,399.233 168.857,402.968 171.648,406.698C176.391,413.026 179.699,417.79 188.308,414.641C188.308,414.641 203.398,411.222 212.886,420.294C212.886,420.294 216.129,426.565 205.26,424.099C205.26,424.099 193.47,421.702 186.835,426.365C183.273,428.871 187.376,435.148 188.839,437.734C191,441.553 193.181,445.673 194.124,450.004C194.124,450.004 195.519,456.411 202.849,454.95C202.849,454.95 222.63,452.12 235.428,468.392C235.428,468.392 246.968,480.105 229.559,477.185C229.559,477.185 218.624,473.791 206.976,467.192C205.051,466.092 201.036,461.188 200.093,463.673Z" style="fill:rgb(106,181,123);fill-rule:nonzero;"/>
                    </g>
                </g>
            </g>
            <g transform="matrix(1.74152,0,0,1.24232,-5084.25,-94.2906)">
                <g>
                    <g transform="matrix(4.16667,0,0,4.16667,6098.21,-1351.66)">
                        <path d="M259.6,507.036C259.6,507.036 265.6,534.034 261.1,546.034L276.099,544.534C276.099,544.534 274.6,522.036 265.6,505.536L259.6,507.036Z" style="fill:rgb(77,166,94);fill-rule:nonzero;"/>
                    </g>
                    <g transform="matrix(4.16667,0,0,4.16667,6098.21,-1351.66)">
                        <path d="M200.093,463.673C199.934,464.083 199.868,464.699 199.901,465.578C200.548,481.243 219.258,496.139 231.865,502.577C231.922,502.607 261.739,517.148 266.13,520.08C266.13,520.08 264.174,480.25 207.712,400.219C207.712,400.219 174.869,351.01 117.255,338.452C117.255,338.452 116.17,342.714 134.22,360.928C137.445,364.181 139.728,367.441 143.896,369.823C151.646,374.251 160.335,372.047 168.63,373.816C175.232,375.223 182.143,379.165 173.571,384.572C169.306,387.26 162.29,382.522 158.755,385.47C155.225,388.415 161.465,393.204 163.223,395.541C166.064,399.233 168.857,402.968 171.648,406.698C176.391,413.026 179.699,417.79 188.308,414.641C188.308,414.641 203.398,411.222 212.886,420.294C212.886,420.294 216.129,426.565 205.26,424.099C205.26,424.099 193.47,421.702 186.835,426.365C183.273,428.871 187.376,435.148 188.839,437.734C191,441.553 193.181,445.673 194.124,450.004C194.124,450.004 195.519,456.411 202.849,454.95C202.849,454.95 222.63,452.12 235.428,468.392C235.428,468.392 246.968,480.105 229.559,477.185C229.559,477.185 218.624,473.791 206.976,467.192C205.051,466.092 201.036,461.188 200.093,463.673Z" style="fill:rgb(106,181,123);fill-rule:nonzero;"/>
                    </g>
                    <g transform="matrix(4.16667,0,0,4.16667,6098.21,-1351.66)">
                        <path d="M280.846,473C280.846,473 268.422,484.36 264.737,481.605C264.737,481.605 257.534,478.407 269.594,468.469C275.989,463.804 283.548,463.409 282.246,453.844C282.246,453.844 279.767,435.665 271.726,420.911C271.726,420.911 269.835,414.076 266.424,421.528C266.424,421.528 255.536,447.646 248.254,446.548C248.254,446.548 235.22,443.076 247.838,427.987C247.838,427.987 259.496,412.501 262.103,409.988C262.103,409.988 264.958,407.69 257.104,398.732C257.104,398.732 246.458,386.49 239.864,382.086C239.864,382.086 234.791,379.433 234.549,385.724C234.549,385.724 229.693,398.86 228.433,410.336C228.433,410.336 223.633,417.889 222.582,406.579C222.582,406.579 220.521,390.926 223.328,375.151C223.328,375.151 227.482,368.345 214.823,360.43C209.902,357.398 190.791,344.919 195.271,359.988C195.271,359.988 202.031,382.737 194.164,376.801C194.164,376.801 188.022,359.352 178.445,345.869C175.924,342.32 169.908,339.144 165.607,338.667C165.607,338.667 159.281,337.964 160.991,345.508C160.991,345.508 162.7,353.053 153.458,344.193C153.458,344.193 133.129,326.613 117.255,338.452C117.255,338.452 175.303,357.02 199.385,394.316C199.385,394.316 245.902,455.78 263.899,518.151L266.13,520.08C266.13,520.08 285.382,500.325 287.11,479.288C287.11,479.288 288.269,466.421 280.846,473Z" style="fill:rgb(69,173,168);fill-rule:nonzero;"/>
                    </g>
                    <g transform="matrix(4.16667,0,0,4.16667,6098.21,-1351.66)">
                        <path d="M200.093,463.673C199.934,464.083 199.868,464.699 199.901,465.578C200.548,481.243 219.258,496.139 231.865,502.577C231.922,502.607 261.739,517.148 266.13,520.08C266.13,520.08 264.174,480.25 207.712,400.219C207.712,400.219 174.869,351.01 117.255,338.452C117.255,338.452 116.17,342.714 134.22,360.928C137.445,364.181 139.728,367.441 143.896,369.823C151.646,374.251 160.335,372.047 168.63,373.816C175.232,375.223 182.143,379.165 173.571,384.572C169.306,387.26 162.29,382.522 158.755,385.47C155.225,388.415 161.465,393.204 163.223,395.541C166.064,399.233 168.857,402.968 171.648,406.698C176.391,413.026 179.699,417.79 188.308,414.641C188.308,414.641 203.398,411.222 212.886,420.294C212.886,420.294 216.129,426.565 205.26,424.099C205.26,424.099 193.47,421.702 186.835,426.365C183.273,428.871 187.376,435.148 188.839,437.734C191,441.553 193.181,445.673 194.124,450.004C194.124,450.004 195.519,456.411 202.849,454.95C202.849,454.95 222.63,452.12 235.428,468.392C235.428,468.392 246.968,480.105 229.559,477.185C229.559,477.185 218.624,473.791 206.976,467.192C205.051,466.092 201.036,461.188 200.093,463.673Z" style="fill:rgb(106,181,123);fill-rule:nonzero;"/>
                    </g>
                </g>
            </g>
        </g>
    </g>
</svg>
