<?xml version="1.0" encoding="UTF-8" standalone="no"?>
<!DOCTYPE svg PUBLIC "-//W3C//DTD SVG 1.1//EN" "http://www.w3.org/Graphics/SVG/1.1/DTD/svg11.dtd">
<svg width="100%" height="100%" viewBox="0 0 1124 1072" version="1.1" xmlns="http://www.w3.org/2000/svg" xmlns:xlink="http://www.w3.org/1999/xlink" xml:space="preserve" xmlns:serif="http://www.serif.com/" style="fill-rule:evenodd;clip-rule:evenodd;stroke-linejoin:round;stroke-miterlimit:2;">
    <g transform="matrix(1,0,0,1,-6730.43,-3323.06)">
        <g id="B006" transform="matrix(0.873928,0,0,0.92356,1177.79,3380.97)">
            <rect x="6353.65" y="-62.7" width="1285.35" height="1159.95" style="fill:none;"/>
            <clipPath id="_clip1">
                <rect x="6353.65" y="-62.7" width="1285.35" height="1159.95"/>
            </clipPath>
            <g clip-path="url(#_clip1)">
                <g transform="matrix(-1.14426,0,0,1.08277,14975,-41.1578)">
                    <g transform="matrix(4.16667,0,0,4.16667,6423.46,-223.068)">
                        <path d="M0,241.711C0,241.711 75.779,219.027 129.125,234.896C129.125,234.896 74.386,258.146 0,241.711Z" style="fill:rgb(71,175,120);fill-rule:nonzero;"/>
                    </g>
                    <g transform="matrix(4.16667,0,0,4.16667,6423.46,-223.068)">
                        <path d="M23.502,240.621C23.502,240.621 95.995,231.878 129.125,234.896L128.093,238.884C128.093,238.884 91.862,235.206 23.502,240.621Z" style="fill:rgb(48,142,100);fill-rule:nonzero;"/>
                    </g>
                    <g transform="matrix(4.16667,0,0,4.16667,6423.46,-223.068)">
                        <path d="M267.484,165.794C267.484,165.794 176.777,180.377 131.057,238.626C131.057,238.626 211.34,207.062 267.484,165.794Z" style="fill:rgb(76,183,135);fill-rule:nonzero;"/>
                    </g>
                    <g transform="matrix(4.16667,0,0,4.16667,6423.46,-223.068)">
                        <path d="M243.475,175.644C243.475,175.644 158.941,227.817 129.125,234.896L127.735,232.499C127.735,232.499 197.449,201.364 243.475,175.644Z" style="fill:rgb(48,142,100);fill-rule:nonzero;"/>
                    </g>
                    <g transform="matrix(4.16667,0,0,4.16667,6423.46,-223.068)">
                        <path d="M78.154,65.129C78.154,65.129 77.638,202.237 128.093,238.884C128.093,238.884 116.418,164.319 78.154,65.129Z" style="fill:rgb(76,183,135);fill-rule:nonzero;"/>
                    </g>
                    <g transform="matrix(4.16667,0,0,4.16667,6423.46,-223.068)">
                        <path d="M85.094,106.606C85.094,106.606 104.723,210.84 126.382,236.56C126.382,236.56 98.63,163.461 85.094,106.606Z" style="fill:rgb(48,142,100);fill-rule:nonzero;"/>
                    </g>
                    <g transform="matrix(4.16667,0,0,4.16667,6423.46,-223.068)">
                        <path d="M142.995,50.344C142.995,50.344 103.747,187.857 128.927,241.051C128.927,241.051 152.755,147.555 142.995,50.344Z" style="fill:rgb(71,175,120);fill-rule:nonzero;"/>
                    </g>
                    <g transform="matrix(4.16667,0,0,4.16667,6423.46,-223.068)">
                        <path d="M203.163,63.719C203.163,63.719 146.135,142.617 128.168,241.448C128.168,241.448 194.128,145.369 203.163,63.719Z" style="fill:rgb(76,183,135);fill-rule:nonzero;"/>
                    </g>
                    <g transform="matrix(4.16667,0,0,4.16667,6423.46,-223.068)">
                        <path d="M246.292,113.625C246.292,113.625 151.997,160.638 128.938,241.909C128.938,241.909 212.542,169.684 246.292,113.625Z" style="fill:rgb(71,175,120);fill-rule:nonzero;"/>
                    </g>
                    <g transform="matrix(4.16667,0,0,4.16667,6423.46,-223.068)">
                        <path d="M32.05,126.853C32.05,126.853 69.476,223.019 131.057,238.626C131.057,238.626 72.859,160.676 32.05,126.853Z" style="fill:rgb(71,175,120);fill-rule:nonzero;"/>
                    </g>
                    <g transform="matrix(4.16667,0,0,4.16667,6423.46,-223.068)">
                        <path d="M10.78,176.081C10.78,176.081 83.305,204.034 131.057,238.626C131.057,238.626 36.983,220.012 10.78,176.081Z" style="fill:rgb(76,183,135);fill-rule:nonzero;"/>
                    </g>
                    <g transform="matrix(4.16667,0,0,4.16667,6423.46,-223.068)">
                        <path d="M265.7,203.111C265.7,203.111 185.532,201.864 128.093,238.884C128.093,238.884 199.444,235.055 265.7,203.111Z" style="fill:rgb(71,175,120);fill-rule:nonzero;"/>
                    </g>
                    <g transform="matrix(4.16667,0,0,4.16667,6423.46,-223.068)">
                        <path d="M263.08,237.404C263.08,237.404 217.135,218.254 131.057,238.626C131.057,238.626 234.328,248.291 263.08,237.404Z" style="fill:rgb(76,183,135);fill-rule:nonzero;"/>
                    </g>
                    <g transform="matrix(4.16667,0,0,4.16667,6423.46,-223.068)">
                        <path d="M252.224,271.961C252.224,271.961 225.697,241.477 133.501,237.725C133.501,237.725 190.778,265.75 252.224,271.961Z" style="fill:rgb(71,175,120);fill-rule:nonzero;"/>
                    </g>
                    <g transform="matrix(4.16667,0,0,4.16667,6423.46,-223.068)">
                        <path d="M189.123,307.184C189.123,307.184 124.957,267.257 129.125,234.896C129.125,234.896 162.779,253.861 189.123,307.184Z" style="fill:rgb(71,175,120);fill-rule:nonzero;"/>
                    </g>
                    <g transform="matrix(4.16667,0,0,4.16667,6423.46,-223.068)">
                        <path d="M232.864,293.265C232.864,293.265 194.311,249.726 131.057,238.626C131.057,238.626 158.157,274.449 232.864,293.265Z" style="fill:rgb(76,183,135);fill-rule:nonzero;"/>
                    </g>
                    <g transform="matrix(4.16667,0,0,4.16667,6423.46,-223.068)">
                        <path d="M38.111,284.028C38.111,284.028 94.312,231.631 133.501,237.725C133.501,237.725 98.585,272.549 38.111,284.028Z" style="fill:rgb(76,183,135);fill-rule:nonzero;"/>
                    </g>
                    <g transform="matrix(4.16667,0,0,4.16667,6423.46,-223.068)">
                        <path d="M216.57,283.431C216.57,283.431 169.167,247.634 131.834,237.615L131.668,239.782C131.668,239.782 173.422,256.526 216.57,283.431Z" style="fill:rgb(48,142,100);fill-rule:nonzero;"/>
                    </g>
                    <g transform="matrix(4.16667,0,0,4.16667,6423.46,-223.068)">
                        <path d="M138.903,75.811C138.903,75.811 121.644,185.12 127.735,232.499C127.735,232.499 133.319,128.604 138.903,75.811Z" style="fill:rgb(48,142,100);fill-rule:nonzero;"/>
                    </g>
                    <g transform="matrix(4.16667,0,0,4.16667,6423.46,-223.068)">
                        <path d="M94.287,306.07C94.287,306.07 119.435,280.128 129.125,234.896L132.602,235.278C132.602,235.278 128.504,282.892 103.553,307.095L94.287,306.07Z" style="fill:rgb(74,173,90);fill-rule:nonzero;"/>
                    </g>
                </g>
            </g>
        </g>
    </g>
</svg>
