<?xml version="1.0" encoding="UTF-8" standalone="no"?>
<!DOCTYPE svg PUBLIC "-//W3C//DTD SVG 1.1//EN" "http://www.w3.org/Graphics/SVG/1.1/DTD/svg11.dtd">
<svg width="100%" height="100%" viewBox="0 0 766 849" version="1.1" xmlns="http://www.w3.org/2000/svg" xmlns:xlink="http://www.w3.org/1999/xlink" xml:space="preserve" xmlns:serif="http://www.serif.com/" style="fill-rule:evenodd;clip-rule:evenodd;stroke-linejoin:round;stroke-miterlimit:2;">
    <g transform="matrix(1,0,0,1,-3301.54,-793.537)">
        <g id="B007" transform="matrix(0.595619,0,0,0.731142,-482.825,839.38)">
            <rect x="6353.65" y="-62.7" width="1285.35" height="1159.95" style="fill:none;"/>
            <g transform="matrix(1.67892,0,0,1.36772,-4698.64,-73.1244)">
                <g transform="matrix(4.16667,0,0,4.16667,5722.01,-2629.17)">
                    <path d="M372.824,835.628C372.824,835.628 342.494,776.935 319.687,765.403L325,760.448C325,760.448 357.952,784.573 381.757,827.829L372.824,835.628Z" style="fill:rgb(69,173,168);fill-rule:nonzero;"/>
                </g>
                <g transform="matrix(4.16667,0,0,4.16667,5722.01,-2629.17)">
                    <path d="M314.234,718.131C312.336,721.166 309.032,722.515 306.849,721.149C304.667,719.785 304.436,716.223 306.328,713.188C308.224,710.161 311.532,708.811 313.715,710.178C315.894,711.544 316.126,715.104 314.234,718.131ZM296.395,712.976C292.41,712.661 289.514,708.018 289.935,702.605C290.357,697.185 293.936,693.048 297.924,693.356C301.913,693.665 304.81,698.314 304.383,703.729C303.965,709.148 300.385,713.283 296.395,712.976ZM308.639,764.529C307.058,768.509 303.389,770.8 300.454,769.634C297.52,768.47 296.419,764.29 298.003,760.312C299.587,756.32 303.247,754.033 306.179,755.2C309.121,756.364 310.216,760.54 308.639,764.529ZM290.185,762.273C287.38,765.508 283.161,766.454 280.774,764.385C278.392,762.315 278.735,758.01 281.547,754.773C284.358,751.532 288.572,750.586 290.955,752.657C293.344,754.729 292.998,759.031 290.185,762.273ZM270.833,732.679C265.862,732.891 261.698,730.083 261.54,726.417C261.389,722.753 265.3,719.606 270.271,719.399C275.252,719.191 279.414,721.992 279.564,725.655C279.719,729.326 275.811,732.468 270.833,732.679ZM383.501,690.507C380.3,683.168 374.432,688.091 374.432,688.091C368.629,695.759 345.281,711.493 345.281,711.493C331.891,720.829 333.729,713.038 333.729,713.038C338.441,701.223 355.856,687.668 355.856,687.668C365.804,678.908 363.626,675.334 363.626,675.334C360.676,662.441 341.323,657.425 341.323,657.425C330.339,652.97 332.585,664.009 332.585,664.009C329.343,675.185 322.533,690.9 322.533,690.9C317.572,708.271 313.215,696.398 313.215,696.398C311.539,681.721 318.225,662.88 318.225,662.88C324.595,653.934 316.67,648.964 316.67,648.964C308.622,643.231 293.426,641.842 293.426,641.842C278.478,637.263 280.659,645.56 280.659,645.56C282.581,652.324 284.772,665.345 284.772,665.345C293.355,688.318 282.75,681.436 282.75,681.436C271.249,673.916 269.311,657.706 269.311,657.706C268.394,638.17 254.222,638.186 254.222,638.186C197.904,631.106 209.833,673.994 209.833,673.994C209.207,684.334 218.593,683.943 218.593,683.943C233.216,688.964 251.11,701.714 251.11,701.714C260.888,710.7 246.968,712.25 246.968,712.25C240.331,710.218 235.095,709.519 223.6,709.087C223.043,709.065 222.514,709.055 222,709.059C211.959,709.087 210.521,713.256 210.521,713.256C204.599,727.243 214.262,744.913 214.262,744.913C222.63,750.202 253.84,743.781 253.84,743.781C272.223,740.693 268.723,750.338 268.723,750.338C266.952,760.872 223.474,762.267 223.474,762.267C201.896,762.74 217.563,783.343 217.563,783.343C225.95,800.439 235.583,794.492 235.583,794.492C241.39,793.909 260.716,780.031 260.716,780.031C273.662,770.376 276.743,781.674 276.743,781.674C278.548,794.758 254.745,803.086 254.745,803.086C245.234,805.077 245.109,809.034 245.109,809.034C262.107,821.145 278.377,814.868 278.377,814.868C298.608,811.076 297.368,789.626 297.368,789.626C299.914,778.965 303.945,788.92 303.945,788.92C307.337,792.679 308.433,801.551 308.433,801.551C306.079,808.642 309.908,810.359 309.908,810.359C325.04,808.999 332.041,794.433 332.041,794.433C334.394,784.986 328.442,772.99 328.442,772.99C320.833,762.85 327.089,762.586 327.089,762.586C341.211,773.995 360.805,771.1 360.805,771.1C370.19,768.343 376.044,753.972 376.044,753.972C380.436,742.601 374.432,742.032 374.432,742.032C367.859,742.745 347.303,742.26 347.303,742.26C339.958,740.736 345.891,736.199 345.891,736.199C352.775,730.317 373.33,728.439 373.33,728.439C383.165,728.364 384.12,724.661 384.12,724.661C391.949,707.985 383.501,690.507 383.501,690.507Z" style="fill:rgb(69,173,168);fill-rule:nonzero;"/>
                </g>
            </g>
        </g>
    </g>
</svg>
