<?xml version="1.0" encoding="UTF-8" standalone="no"?>
<!DOCTYPE svg PUBLIC "-//W3C//DTD SVG 1.1//EN" "http://www.w3.org/Graphics/SVG/1.1/DTD/svg11.dtd">
<svg width="100%" height="100%" viewBox="0 0 867 1029" version="1.1" xmlns="http://www.w3.org/2000/svg" xmlns:xlink="http://www.w3.org/1999/xlink" xml:space="preserve" xmlns:serif="http://www.serif.com/" style="fill-rule:evenodd;clip-rule:evenodd;stroke-miterlimit:2;">
    <g transform="matrix(1,0,0,1,-327.691,-28.0268)">
        <g id="B008" transform="matrix(0.674117,0,0,0.886658,-3955.42,83.62)">
            <rect x="6353.65" y="-62.7" width="1285.35" height="1159.95" style="fill:none;"/>
            <g transform="matrix(1.48342,0,0,1.12783,-3348.16,-57.5028)">
                <g transform="matrix(4.16667,0,0,4.16667,4797.19,-560.471)">
                    <path d="M538.353,304.409C538.353,304.409 525.411,308.395 531.37,326.792C531.37,326.792 541.979,359.949 502.019,359.312C502.019,359.312 517.401,346.908 515.279,335.344C515.279,335.344 512.603,326.035 504.761,338.459C504.761,338.459 490.894,362.647 464.734,343.326C464.734,343.326 502.81,325.464 495.35,312.403C495.35,312.403 490.197,301.936 474.094,318.027C474.094,318.027 441.681,342.064 431.78,312.762C431.78,312.762 426.188,301.083 426.054,287.431C426.054,287.431 472.477,302.174 497.555,286.265C497.555,286.265 501.694,280.658 494.81,282.461C494.81,282.461 432.854,298.672 420.87,267.385C420.87,267.385 416.493,255.268 423.174,245.319C423.174,245.319 464.442,274.251 489.792,260.986C489.792,260.986 495.097,252.905 484.087,252.772C484.087,252.772 448.067,263.042 425.562,234.867C425.562,234.867 419.114,213.224 431.248,201.306C431.248,201.306 450.998,233.215 464.646,233.08C464.646,233.08 475.093,235.47 468.951,226.044C468.951,226.044 435.964,210.564 435.288,191.627C435.288,191.627 435.422,180.619 446.276,174.643C446.276,174.643 460.953,207.698 472.638,202.11C472.638,202.11 482.548,199.218 470.077,189.336C470.077,189.336 433.402,173.131 462.855,144.684C462.855,144.684 470.022,137.983 485.002,133.942C485.002,133.942 484.683,153.925 492.598,160.655C492.598,160.655 504.146,166.071 499.228,148.669L494.463,137.377C494.463,137.377 518.146,130.876 515.302,147.658C515.302,147.658 515.754,165.988 510.438,181.608C510.438,181.608 510.136,194.047 517.861,185.092C517.861,185.092 531.39,163.767 525.383,143.333C525.383,143.333 546.405,144.644 542.35,161.864C542.35,161.864 537.182,183.592 528.633,192.16C528.633,192.16 518.589,206.061 535.385,201.365C535.385,201.365 556.354,175.982 550.075,152.908C550.075,152.908 576.852,164.471 563.98,187.612C563.98,187.612 556.842,203.889 544.439,213.164C544.439,213.164 535.386,226.022 553.125,218.247C553.125,218.247 584.041,199.545 577.055,172.616C577.055,172.616 602.122,188.906 588.859,212.875C588.859,212.875 577.159,226.005 561.845,232.907C561.845,232.907 546.677,245.918 567.161,241.944C567.161,241.944 599.679,221.982 603.13,204.981C603.13,204.981 622.524,219.12 607.121,242.584C605.354,245.275 594.331,252.683 573.241,256.874C573.241,256.874 556.007,260.358 566.998,268.034C566.998,268.034 606.301,266.852 621.481,246.3C621.481,246.3 637.488,275.453 605.054,282.373C605.054,282.373 589.468,286.632 578.797,283.635C578.797,283.635 565.871,280.082 568.329,288.784C568.329,288.784 584.416,304.896 611.519,296.477C611.519,296.477 613.457,317.006 591.659,317.345C591.659,317.345 581.425,315.564 579.017,308.899C579.017,308.899 566.154,299.845 570.365,313.394C570.365,313.394 573.916,325.124 587.619,327.026C587.619,327.026 573.211,345.925 561.361,328.289C561.361,328.289 551.194,296.347 538.353,304.409Z" style="fill:rgb(58,123,63);fill-rule:nonzero;"/>
                </g>
                <g transform="matrix(4.16667,0,0,4.16667,4797.19,-560.471)">
                    <path d="M479.956,152.205C479.956,152.205 550.321,318.58 553,377.202C553,377.202 560.472,382.723 567.592,373.986C567.592,373.986 540.605,280.302 479.956,152.205Z" style="fill:rgb(83,135,84);fill-rule:nonzero;"/>
                </g>
                <g transform="matrix(4.16667,0,0,4.16667,4797.19,-560.471)">
                    <path d="M479.956,152.205C479.956,152.205 550.321,318.58 553,377.202C553,377.202 560.472,382.723 567.592,373.986C567.592,373.986 540.605,280.302 479.956,152.205Z" style="fill:none;stroke:rgb(83,135,84);stroke-width:1px;"/>
                </g>
                <g transform="matrix(4.16667,0,0,4.16667,4797.19,-560.471)">
                    <path d="M448.349,195.299C448.349,195.299 473.465,222.246 501.574,203.464L502.894,207.115C502.894,207.115 470.146,223.444 448.349,195.299Z" style="fill:rgb(83,135,84);fill-rule:nonzero;"/>
                </g>
                <g transform="matrix(4.16667,0,0,4.16667,4797.19,-560.471)">
                    <path d="M556.07,181.906C556.07,181.906 545.147,213.991 509.827,221.12L511.053,225.554C511.053,225.554 548.254,213.245 556.07,181.906Z" style="fill:rgb(83,135,84);fill-rule:nonzero;"/>
                </g>
                <g transform="matrix(4.16667,0,0,4.16667,4797.19,-560.471)">
                    <path d="M449.182,269.286C449.182,269.286 486.726,279.74 521.685,258.108L522.432,261.215C522.432,261.215 482.226,282.865 449.182,269.286Z" style="fill:rgb(83,135,84);fill-rule:nonzero;"/>
                </g>
                <g transform="matrix(4.16667,0,0,4.16667,4797.19,-560.471)">
                    <path d="M607.529,267.249C607.529,267.249 570.025,280.794 530.998,273.504L532.889,277.699C532.889,277.699 575.42,282.223 607.529,267.249Z" style="fill:rgb(83,135,84);fill-rule:nonzero;"/>
                </g>
                <g transform="matrix(4.16667,0,0,4.16667,4797.19,-560.471)">
                    <path d="M443.868,230.685C443.868,230.685 474.913,249.112 512.934,233.879L514.012,236.867C514.012,236.867 471.649,252.543 443.868,230.685Z" style="fill:rgb(83,135,84);fill-rule:nonzero;"/>
                </g>
                <g transform="matrix(4.16667,0,0,4.16667,4797.19,-560.471)">
                    <path d="M582.41,199.782C582.41,199.782 561.871,231.212 518.31,243.569L519.841,246.768C519.841,246.768 566.12,231.553 582.41,199.782Z" style="fill:rgb(83,135,84);fill-rule:nonzero;"/>
                </g>
                <g transform="matrix(4.16667,0,0,4.16667,4797.19,-560.471)">
                    <path d="M445.487,304.764C445.487,304.764 493.697,304.235 528.13,274.915L529.236,279.018C529.236,279.018 489.346,308.809 445.487,304.764Z" style="fill:rgb(83,135,84);fill-rule:nonzero;"/>
                </g>
                <g transform="matrix(4.16667,0,0,4.16667,4797.19,-560.471)">
                    <path d="M525.723,258.9C525.723,258.9 577.565,251.808 602.253,225.632C602.253,225.632 591.136,249.908 526.47,262.007L525.723,258.9Z" style="fill:rgb(83,135,84);fill-rule:nonzero;"/>
                </g>
                <g transform="matrix(4.16667,0,0,4.16667,4797.19,-560.471)">
                    <path d="M532.199,164.64C532.199,164.64 523.572,194.769 501.574,203.464L502.894,207.115C502.894,207.115 527.222,193.452 532.199,164.64Z" style="fill:rgb(83,135,84);fill-rule:nonzero;"/>
                </g>
                <g transform="matrix(4.16667,0,0,4.16667,4797.19,-560.471)">
                    <path d="M531.302,285.775C531.302,285.775 513.611,324.057 481.861,340.026C481.861,340.026 515.623,328.584 532.833,288.975L531.302,285.775Z" style="fill:rgb(83,135,84);fill-rule:nonzero;"/>
                </g>
                <g transform="matrix(4.16667,0,0,4.16667,4797.19,-560.471)">
                    <path d="M535.47,282.77C535.47,282.77 575.789,306.103 602.625,303.538C602.625,303.538 577.017,310.537 536.576,286.873L535.47,282.77Z" style="fill:rgb(83,135,84);fill-rule:nonzero;"/>
                </g>
                <g transform="matrix(4.16667,0,0,4.16667,4797.19,-560.471)">
                    <path d="M464.266,154.189C464.266,154.189 471.396,171.592 488.758,172.919L490.267,176.314C490.267,176.314 469.177,173.238 464.266,154.189Z" style="fill:rgb(83,135,84);fill-rule:nonzero;"/>
                </g>
                <g transform="matrix(4.16667,0,0,4.16667,4797.19,-560.471)">
                    <path d="M505.235,145.3C505.235,145.3 511.653,167.746 492.451,180.027L493.779,182.924C493.779,182.924 514.453,169.266 505.235,145.3Z" style="fill:rgb(83,135,84);fill-rule:nonzero;"/>
                </g>
            </g>
        </g>
    </g>
</svg>
