<?xml version="1.0" encoding="UTF-8" standalone="no"?>
<!DOCTYPE svg PUBLIC "-//W3C//DTD SVG 1.1//EN" "http://www.w3.org/Graphics/SVG/1.1/DTD/svg11.dtd">
<svg width="100%" height="100%" viewBox="0 0 769 1069" version="1.1" xmlns="http://www.w3.org/2000/svg" xmlns:xlink="http://www.w3.org/1999/xlink" xml:space="preserve" xmlns:serif="http://www.serif.com/" style="fill-rule:evenodd;clip-rule:evenodd;stroke-linejoin:round;stroke-miterlimit:2;">
    <g transform="matrix(1,0,0,1,-1239.72,-3858.1)">
        <g id="B009" transform="matrix(0.597998,0,0,0.920924,-2559.76,3915.84)">
            <rect x="6353.65" y="-62.7" width="1285.35" height="1159.95" style="fill:none;"/>
            <g transform="matrix(1.67225,0,0,1.08587,-4567.76,-94.2161)">
                <g transform="matrix(4.16667,0,0,4.16667,4797.19,-1506.85)">
                    <path d="M572.915,541.013C572.915,541.013 588.928,590.4 580.156,621.515L572.278,619.078C572.278,619.078 585.104,583.984 567.066,543.45L572.915,541.013Z" style="fill:rgb(60,127,61);fill-rule:nonzero;"/>
                </g>
                <g transform="matrix(4.16667,0,0,4.16667,4797.19,-1506.85)">
                    <path d="M567.202,556.004C567.202,556.004 618.952,544.387 587.27,455.679L569.316,465.182L580.934,432.445C580.934,432.445 575.649,411.325 554.532,403.933L539.748,419.773L541.858,392.315C541.858,392.315 533.409,378.585 513.344,379.642L508.065,391.259L504.897,376.473L494.335,376.473L491.168,395.482L481.661,374.362C481.661,374.362 457.374,363.803 419.356,400.764C419.356,400.764 437.308,409.212 453.149,418.717L464.767,431.389L489.057,431.389L475.325,438.782C475.325,438.782 492.221,462.014 503.839,466.238L528.13,464.128L514.401,474.687C514.401,474.687 516.513,486.305 524.961,495.811L548.192,491.584L536.579,503.2L543.971,506.369L534.466,516.93C534.466,516.93 536.576,544.39 567.202,556.004Z" style="fill:rgb(58,148,68);fill-rule:nonzero;"/>
                </g>
                <g transform="matrix(4.16667,0,0,4.16667,4797.19,-1506.85)">
                    <path d="M587.27,455.679L569.316,465.182L580.934,432.445C580.934,432.445 575.649,411.325 554.532,403.933L539.748,419.773L541.858,392.315C541.858,392.315 533.409,378.585 513.344,379.642L508.065,391.259L504.897,376.473L494.335,376.473L491.168,395.482L481.661,374.362C481.661,374.362 457.374,363.803 419.356,400.764C419.356,400.764 421.239,401.65 424.311,403.166C443.067,403.934 462.222,404.385 480.399,409.146C500.618,414.444 518.651,425.136 532.661,440.741C558.441,469.463 575.403,510.108 580.154,549.146C592.999,538.778 608.01,513.745 587.27,455.679Z" style="fill:rgb(78,170,86);fill-rule:nonzero;"/>
                </g>
            </g>
        </g>
    </g>
</svg>
